<svg xmlns="http://www.w3.org/2000/svg" width="70" height="44.999" viewBox="0 0 70 44.999"><defs><style>.a{fill:#d2345b;}</style></defs><g transform="translate(0 -91.365)"><path class="a" d="M69.219,111.17A41.72,41.72,0,0,0,54.511,96.795a37.771,37.771,0,0,0-39.023,0A41.71,41.71,0,0,0,.781,111.17a5.042,5.042,0,0,0,0,5.391,41.7,41.7,0,0,0,14.707,14.375,37.835,37.835,0,0,0,39.023.02A41.442,41.442,0,0,0,69.219,116.56a5.042,5.042,0,0,0,0-5.391Zm-42.6-10.684A11.43,11.43,0,0,1,35,96.99a1.875,1.875,0,1,1,0,3.75,8.136,8.136,0,0,0-8.125,8.125,1.875,1.875,0,1,1-3.751,0A11.432,11.432,0,0,1,26.621,100.486ZM51.973,126.62a32.723,32.723,0,0,1-33.945,0A40.319,40.319,0,0,1,5,113.865a38.392,38.392,0,0,1,14.883-13.789,17.071,17.071,0,0,0-2.383,8.789,16.855,16.855,0,0,0,5.137,12.363A16.852,16.852,0,0,0,35,126.365a16.856,16.856,0,0,0,12.363-5.137A16.85,16.85,0,0,0,52.5,108.865a17.069,17.069,0,0,0-2.383-8.789A38.4,38.4,0,0,1,65,113.865,40.308,40.308,0,0,1,51.973,126.62Z" transform="translate(0)"/></g></svg>