<svg xmlns="http://www.w3.org/2000/svg" xmlns:xlink="http://www.w3.org/1999/xlink" width="115.475" height="440.428" viewBox="0 0 115.475 440.428"><defs><style>.a{fill:#b7c0c4;}.b{fill:#f7c3a9;}.c{fill:#e1ecf4;}.d{fill:#d6e0e5;}.e{fill:#634227;}.f{fill:#4c311e;}.g{fill:url(#a);}.h{fill:#14161c;}.i{fill:#e89f8e;}.j{fill:#efb5a3;}.k{fill:#f7b7a6;}.l{fill:#282627;}.m{fill:#231f20;}.n{fill:#1e1b1c;}.o,.q,.r{fill:none;stroke-miterlimit:10;}.o{stroke:#e89f8e;}.o,.r{stroke-width:0.5px;}.p{fill:#15151a;}.q,.r{stroke:#231f20;}.q{stroke-width:0.75px;}</style><linearGradient id="a" x1="0.5" y1="0.511" x2="0.5" y2="1.094" gradientUnits="objectBoundingBox"><stop offset="0" stop-color="#171921"/><stop offset="1" stop-color="#131215"/></linearGradient></defs><g transform="translate(0 0.001)"><path class="a" d="M434.656,210.118s-64.42,15.683-86.425-7.031l10.411-53,59.019,3.549L432.815,166.9Z" transform="translate(-333.372 -98.607)"/><path class="b" d="M358.529,320.888a3.367,3.367,0,0,1-2.1,2.4c-1.893.828-1.775.118-4.259,0a8.1,8.1,0,0,1-4.082,1.124c-1.956-.16-2.365-1.243-5.608-1.479,0,0-3.263-3.9-1.194-7.925,0,0-.828.118-1.184-1.42s2.083-13.109,5.659-13.165l8.657,11.645Z" transform="translate(-246.804 -56.737)"/><path class="b" d="M356,300.269s.384,12.332-.029,20.663c0,0-10.6.34-16.053-.611,0,0,.96-15.942,3.281-19.851Z" transform="translate(-244.242 -56.78)"/><path class="b" d="M345.135,209.737c6.06,4.86,11.017,34.626,13.483,62.88,2.367,27.12,2.364,52.866,2.364,52.866l-12.8.2c-3.039-27.21-6.362-41.806-7.326-50.945-.584-5.549-.786-9.182-.813-11.551Z" transform="translate(-249.227 -81.994)"/><path class="c" d="M338.488,193.382s10.387,4.982,15.683,31.955c6.2,31.582,9.007,82.2,8.8,109.041,0,0-12.609,4.852-23.34,2.07C339.633,336.448,334.869,202.6,338.488,193.382Z" transform="translate(-247.509 -86.549)"/><path class="d" d="M345.525,336.447s-4.764-133.851-1.146-143.065c0,0,6.523,3.141,11.867,17.868h0a15.708,15.708,0,0,0-3.4,11.821c3.1,28.056,9.888,95.093,8.243,113.407C356.613,337.329,350.841,337.826,345.525,336.447Z" transform="translate(-253.4 -86.549)"/><path class="e" d="M394.955,431.12s-2.044,20.882-1.314,29.645h24.242s.146-5.55-1.169-7.01-6.133-9.493-5.987-21.175Z" transform="translate(-374.459 -20.338)"/><path class="e" d="M348.216,434.432s-2.336,13.727-1.9,25.41h38.7s1.46-4.527,0-6.28-11.793-4.739-15.917-8.543a31.065,31.065,0,0,1-7.01-10.587Z" transform="translate(-281.864 -19.415)"/><path class="f" d="M358.559,434.432h13.873a31.076,31.076,0,0,0,7.01,10.587,18.226,18.226,0,0,0,3.342,2.312c-7.248.652-19.419,3.172-26.124,12.511C356.223,448.159,358.559,434.432,358.559,434.432Z" transform="translate(-292.208 -19.415)"/><path class="f" d="M398.288,431.12l15.772,1.46a39.966,39.966,0,0,0,2.9,15.575c-6.29.476-17.578,2.719-19.986,12.61C396.243,452,398.288,431.12,398.288,431.12Z" transform="translate(-377.792 -20.338)"/><path class="g" d="M429.881,293.268a1660.294,1660.294,0,0,1-16.94,182.25s-9.93,2.921-16.939,0c0,0,.059-137.464-.524-143.888,0,0-6.134-1.461-7.594.583,0,0-15.539,125.489-19.92,140.677,0,0-9.93,3.506-18.109-.584,0,0,3.213-168.23,5.841-182.249Z" transform="translate(-330.672 -59.625)"/><path class="h" d="M384.9,320.708s-3.921,115.544-2.448,147.023a14.963,14.963,0,0,1-2.285-.733s.059-137.464-.524-143.888c0,0-4.917-1.17-6.993.054C373.874,322.209,379.626,320.268,384.9,320.708Z" transform="translate(-314.839 -51.106)"/><path class="i" d="M350.231,156.04c.779-8.309,5.707-10.716,10.6-8.624,6.621,2.833,6.354,20.988-11.158,17.785Z" transform="translate(-265.382 -99.55)"/><path class="h" d="M429.881,293.268s-.054,1.987-.2,5.668c-7.171,2.2-29.737,8.06-66.591,8.06,0,0-13.61,134.594-11.212,166.16a17.22,17.22,0,0,1-2.028-.85s3.213-168.23,5.841-182.249Z" transform="translate(-330.672 -59.625)"/><path class="c" d="M362.034,195.217a7.619,7.619,0,0,1,1.139-.637c8.286-3.691,25.835-6.363,36.953-6.3,8.153.046,21.606,2.448,29.739,6.523,26.331,104.389,8.23,315.484,8.23,315.484-3.92,2.672-33.993,9.226-60.138,2.39-13.3-3.479-32.846-.615-32.846-.615C344.915,498.043,364.662,211.48,362.034,195.217Z" transform="translate(-338.886 -87.97)"/><path class="d" d="M420.623,257.47s6.321,57.6,7.758,64.692l-3.774,5.661s-3.021,119.149,4.661,175.06c-13.155-2.682-30.682-.118-30.682-.118-.157-11.312,12.671-200.1,16.249-281.107l10.935,2.872S422.814,245.3,420.623,257.47Z" transform="translate(-392.362 -78.674)"/><path class="d" d="M354.746,195.217a7.621,7.621,0,0,1,1.139-.637c8.286-3.691,25.834-6.363,36.953-6.3,8.153.046,21.606,2.448,29.739,6.523.748,2.965,1.455,6.026,2.133,9.155-10.016,2.952-31.649,9.549-52.7.435,0,0,.445,15.012,1.628,20.1,0,0-11.334-1.555-19.015-7.275C355.04,205.413,355.122,197.544,354.746,195.217Z" transform="translate(-331.598 -87.97)"/><path class="j" d="M384.375,208.825c-16.183-.1-13.862-14.406-13.862-15.462v-21h19.754l.2,20.85C390.47,193.9,400.027,208.921,384.375,208.825Z" transform="translate(-320.417 -92.403)"/><path class="d" d="M386.162,190.27s-11.091-.593-13.267-7.01a16.949,16.949,0,0,0-5.552,7.723s-.878,17.478,16.779,17.475c10.72,0,15.535-6.033,15.535-11.179a13.721,13.721,0,0,0-1.682-6.037,41.775,41.775,0,0,0-5.175-6.478A7.974,7.974,0,0,1,386.162,190.27Z" transform="translate(-322.797 -89.368)"/><path class="b" d="M416.251,129.884c2.181,3.29,4.282,17.14,3.5,27.649s.326,23.245-1.671,27.259c-3,6.037-23.058,14.993-27.925,16.162s-26.092-9.736-29.012-15.577-11.877-33.295-8.567-46.731,15.576-24.636,33.308-24.533C406.56,114.232,413.293,125.423,416.251,129.884Z" transform="translate(-323.273 -108.627)"/><path class="k" d="M353.091,160.7c0,3.026,2.783,5.481,6.217,5.481s6.219-2.455,6.219-5.481-2.785-5.481-6.219-5.481S353.091,157.674,353.091,160.7Z" transform="translate(-270.457 -97.178)"/><path class="l" d="M395.612,148.061s-5.131-4.043-10.263-3.715-5.67,1.2-5.67,1.2a2.75,2.75,0,0,1,1.163-2.677c1.158-.809,3.85-1.087,5.858-1.038,2.535.06,7.222,2.276,8.911,3.96C396.98,147.156,395.612,148.061,395.612,148.061Z" transform="translate(-335.103 -100.908)"/><path class="l" d="M355.233,154.221c1.184,6.587,8.163,18.375,14.183,13.391s10.9-2,16.931-.8a42.711,42.711,0,0,0,11.177.7c5.142.71,5.267,3.549,12.6,2.011a10.5,10.5,0,0,0,6.8-5.293c-.1,4.351.248,9.648-.652,11.457-3,6.037-14.13,18.561-30.033,18.561-16.375,0-25.488-13.617-28.408-19.458-1.418-2.836-3.362-10.993-5.532-19.937C353.695,152.857,354.852,152.1,355.233,154.221Zm14.183,19.786c1.924,6.041,8.414,10.3,16.931,10.537s14.346-3.365,14.731-7.477c1.071-11.452-10.339-6.164-20.3-9.559C373.137,164.906,368.189,170.163,369.416,174.007Z" transform="translate(-320.854 -97.81)"/><path class="l" d="M356.945,148.575s5.132-4.044,10.263-3.717,5.671,1.2,5.671,1.2a2.754,2.754,0,0,0-1.165-2.678c-1.158-.808-3.848-1.085-5.857-1.038-2.537.061-7.224,2.276-8.913,3.96C355.577,147.67,356.945,148.575,356.945,148.575Z" transform="translate(-281.99 -100.765)"/><path class="m" d="M386.557,152.224c0,2.632,1.264,4.766,2.823,4.766s2.824-2.134,2.824-4.766-1.264-4.768-2.824-4.768S386.557,149.591,386.557,152.224Z" transform="translate(-339.92 -99.34)"/><path class="d" d="M355.986,214.559a27.7,27.7,0,0,1-4.93,1.761s1.186-11.368,0-14.794l4.93-2.952,1.928,5.619Z" transform="translate(-260.242 -85.103)"/><path class="n" d="M388.908,148.408a9.112,9.112,0,0,0-.289,2.3c0,3.044,1.414,5.526,3.194,5.687a1.846,1.846,0,0,1-1.027.33c-1.559,0-2.823-2.134-2.823-4.766A6.534,6.534,0,0,1,388.908,148.408Z" transform="translate(-341.326 -99.075)"/><path class="m" d="M360.286,152.224c0,2.632,1.264,4.766,2.823,4.766s2.824-2.134,2.824-4.766-1.264-4.768-2.824-4.768S360.286,149.591,360.286,152.224Z" transform="translate(-280.062 -99.34)"/><path class="n" d="M362.637,148.408a9.114,9.114,0,0,0-.289,2.3c0,3.044,1.414,5.526,3.194,5.687a1.846,1.846,0,0,1-1.027.33c-1.559,0-2.823-2.134-2.823-4.766A6.534,6.534,0,0,1,362.637,148.408Z" transform="translate(-281.468 -99.075)"/><path class="b" d="M415.6,156.04c-.779-8.309-5.707-10.716-10.6-8.624-6.62,2.833-6.354,20.988,11.158,17.785Z" transform="translate(-382.349 -99.55)"/><path class="i" d="M403.615,151.8s7.267-3.59,8.465,6.449c0,0-4.751-4.055-7.33-1,0,0,.707-2.855,4.485-2.015A4.816,4.816,0,0,0,403.615,151.8Z" transform="translate(-381.605 -98.303)"/><path class="o" d="M380.628,174.069s-2.246.89-5.737-.857" transform="translate(-313.429 -92.167)"/><path class="k" d="M386.635,160.7c0,3.026,2.785,5.481,6.219,5.481s6.219-2.455,6.219-5.481-2.785-5.481-6.219-5.481S386.635,157.674,386.635,160.7Z" transform="translate(-346.888 -97.178)"/><g transform="translate(2.3 128.465)"><path class="b" d="M402.418,256.737l8.052-41.107s21.663-5.825,21.705-5.294S421.7,261.794,421.7,261.794c3.5,17.16,5.278,60.207,5.278,60.207l-12.767.969c-4.668-26.978-8.864-41.347-10.374-50.41C401.471,258.363,402.418,256.737,402.418,256.737Z" transform="translate(-402.231 -210.302)"/><path class="j" d="M430.393,249.375c-.285,1.386-.551,2.681-.8,3.87-4.085,1.34-11.065.156-16.875-2.18a65.032,65.032,0,0,0-.829,14.277c1.135,13.557,4.645,34.252,6.394,43.66h0c-3.688-19.009-6.794-30.214-8.047-37.736-2.367-14.2-1.42-15.823-1.42-15.823l7.389-37.726,3.851-2.764Z" transform="translate(-408.63 -209.007)"/><path class="b" d="M423.458,315.284s-.178,2.218-1.419,2.572-1.686-.266-3.727,0c0,0-.6.758-4.468.112,0,0-2.452.953-3.517.687s-1.6.354-2.928-.355-1.952-3.016-1.952-3.016-.441-5.939.534-6.472a3.126,3.126,0,0,1,3.636.615C410.415,310.492,423.458,315.284,423.458,315.284Z" transform="translate(-397.498 -182.956)"/><path class="i" d="M418.351,310.492s.132.4.414,1.153a2.842,2.842,0,0,0,.71.8v.6a3.862,3.862,0,0,0-1.833,1.3,1.243,1.243,0,0,1,.162-.614c.216-.38.7-.505.954-.683C419.067,312.828,418.292,311.467,418.351,310.492Z" transform="translate(-409.232 -182.399)"/><path class="j" d="M417.926,311.818c-.692-2.529-1.828-2.42-1.83-2.42a.99.99,0,0,1,.349-.586,3.126,3.126,0,0,1,3.636.615.981.981,0,0,0,.1.082Z" transform="translate(-407.963 -182.956)"/><path class="b" d="M420.194,297.669s1.124,12.288,1.212,20.629c0,0-10.558.976-16.059.354,0,0,0-15.971,2.08-20.014Z" transform="translate(-395.446 -185.97)"/></g><path class="c" d="M423.551,193.208s-7.6,3.35-17.531,37.679c-6.518,22.536-7.63,35.668-6.211,42.766s7.452,56.849,7.452,56.849,15.131,5.17,24.247-2.771c0,0-6.721-50.529-7.211-61.886,0,0,5.606-18.421,9.416-38.668C437.591,206.575,434.428,194.654,423.551,193.208Z" transform="translate(-399.265 -86.598)"/><path class="c" d="M423.551,193.208s-7.6,3.35-17.531,37.679c-6.518,22.536-7.63,35.668-6.211,42.766s7.452,56.849,7.452,56.849,15.131,5.17,24.247-2.771c0,0-6.721-50.529-7.211-61.886,0,0,5.606-18.421,9.416-38.668C437.591,206.575,434.428,194.654,423.551,193.208Z" transform="translate(-399.265 -86.598)"/><path class="d" d="M410.16,193.208c9.819,1.305,13.331,11.173,11.073,28.231-4.31-1.192-6.866-3.9-10.647-7.1-2.56-2.161-8.344-2.566-11.307-3.131C405.757,195.163,410.16,193.208,410.16,193.208Z" transform="translate(-385.873 -86.598)"/><path class="c" d="M374.183,144.5s-4.637,77.628-.378,97.581c0,0-6.909-7.268-15.64-9.273s-14.882-9.4-14.882-9.4,9.865-54.288,9.853-72.869,18.68-45.08,50.15-40.112,33.177,34.782,33.742,50.161.329,56.667,5.062,68.32c0,0-.947,6.387-14.67,9.375,0,0,3.9-69.239,1.705-92.006,0,0-4.46-4.448-22.6-5.005S388.143,146.159,374.183,144.5Z" transform="translate(-334.48 -109.821)"/><g transform="translate(17.107 16.133)"><path class="p" d="M349.672,138.623a2.131,2.131,0,0,0,.972-.237c46.386-23.854,78.338-3.4,78.654-3.194a2.129,2.129,0,1,0,2.346-3.554c-1.38-.912-34.368-22.025-82.948,2.96a2.131,2.131,0,0,0,.977,4.025Z" transform="translate(-347.539 -122.44)"/></g><g transform="translate(51.991 72.84)"><path class="q" d="M390.041,172.66s-13.947,1.4-22.558-4.415" transform="translate(-365.362 -166.39)"/><path class="r" d="M387.4,166.794a3.782,3.782,0,0,1-2.824,3.357" transform="translate(-384.577 -166.794)"/></g><path class="d" d="M419.08,227.7a186.784,186.784,0,0,1,8.067-23.048l2.448,3.984s-11.388,24.664-15.654,40.281A217.794,217.794,0,0,1,419.08,227.7Z" transform="translate(-412.324 -83.41)"/></g></svg>