<svg xmlns="http://www.w3.org/2000/svg" xmlns:xlink="http://www.w3.org/1999/xlink" width="562.488" height="562.488" viewBox="0 0 562.488 562.488"><defs><style>.a{fill:#fff;}.b{fill:none;stroke:#d2345b;stroke-linecap:round;stroke-linejoin:round;stroke-miterlimit:10;stroke-width:3px;}.c{fill:#d2345b;font-size:39px;font-family:AvenirLTStd-Black, Avenir LT Std;font-weight:800;}.d{filter:url(#a);}</style><filter id="a" x="0" y="0" width="562.488" height="562.488" filterUnits="userSpaceOnUse"><feOffset input="SourceAlpha"/><feGaussianBlur stdDeviation="25.5" result="b"/><feFlood flood-opacity="0.161"/><feComposite operator="in" in2="b"/><feComposite in="SourceGraphic"/></filter></defs><g transform="translate(76.5 76.5)"><g class="d" transform="matrix(1, 0, 0, 1, -76.5, -76.5)"><rect class="a" width="409.488" height="409.488" rx="20" transform="translate(76.5 76.5)"/></g><g transform="translate(122.846 78.827)"><g transform="translate(0)"><path class="b" d="M46.536,47.685c-.245-.007-.481-.037-.723-.037s-.487.031-.728.037H26.471v19.3a19.33,19.33,0,0,0,9.668,16.734V96H55.48V83.719a19.337,19.337,0,0,0,9.668-16.734v-19.3Z" transform="translate(7.373 29.71)"/><path class="b" d="M84.746,47.647H26.729l-9.67,29.006A27.265,27.265,0,0,0,25.066,96H86.4a27.29,27.29,0,0,0,8.012-19.34Z" transform="translate(-2.555 29.71)"/><path class="b" d="M71.491,80.589a2.688,2.688,0,0,1,2.686,2.686V99.928H50V83.275a2.683,2.683,0,0,1,2.688-2.686Z" transform="translate(32.192 64.457)"/><path class="b" d="M31.491,80.589a2.684,2.684,0,0,1,2.686,2.686V99.928H10V83.275a2.684,2.684,0,0,1,2.686-2.686Z" transform="translate(-10 64.457)"/><path class="b" d="M89.915,90.516H101.73v-9.67a9.675,9.675,0,0,0-9.675-9.668H24.376a9.668,9.668,0,0,0-9.67,9.672v9.666H26.521A2.684,2.684,0,0,1,29.207,93.2v16.653H87.228V93.2a2.683,2.683,0,0,1,2.688-2.686Z" transform="translate(-5.037 54.53)"/><circle class="b" cx="24.174" cy="24.174" r="24.174" transform="translate(106.364)"/><path class="b" d="M143.89,159.491,66.538,24.118,38.907,72.467H61.7l9.669,29.006a27.3,27.3,0,0,1-8.012,19.34h3.177a9.675,9.675,0,0,1,9.673,9.672v9.67h6.977a2.688,2.688,0,0,1,2.686,2.686v16.653Z" transform="translate(20.491 4.891)"/><path class="b" d="M31.176,53.529Z" transform="translate(12.336 35.914)"/><path class="b" d="M35.882,63.923Z" transform="translate(17.301 35.189)"/><path class="b" d="M118.189,85.295Z" transform="translate(40.668 69.421)"/><path class="b" d="M60.457,80.589Z" transform="translate(43.222 64.457)"/><path class="b" d="M111.994,75.883Z" transform="translate(35.81 59.492)"/><path class="b" d="M113.616,71.176Z" transform="translate(28.665 54.526)"/><path class="b" d="M104.01,66.47Z" transform="translate(32.742 49.564)"/><path class="b" d="M97.021,61.764Z" transform="translate(34.206 44.599)"/><path class="b" d="M92.983,57.059Z" transform="translate(32.722 39.637)"/><path class="b" d="M88.941,52.353Z" transform="translate(31.239 34.673)"/><path class="b" d="M98.3,47.646Z" transform="translate(16.355 29.708)"/><path class="b" d="M89.11,42.941Z" transform="translate(20.018 24.746)"/><path class="b" d="M79.926,38.236Z" transform="translate(23.68 19.784)"/><path class="b" d="M70.736,33.53Z" transform="translate(27.345 14.82)"/><path class="b" d="M49.664,28.824Z" transform="translate(31.837 9.855)"/></g><text class="c" transform="translate(78.38 239.331)"><tspan x="-62.439" y="0">CAIRO</tspan></text></g></g></svg>