<svg xmlns="http://www.w3.org/2000/svg" width="138.407" height="171.772" viewBox="0 0 138.407 171.772"><defs><style>.a{fill:#fff;}</style></defs><g transform="translate(-142.942 -277.948)"><g transform="translate(165.935 300.305)"><path class="a" d="M444.917,75.317c-1.039-1.31-.327-1.477.727-1.636,2.459-.367,4.911-.841,7.35-1.28a2.478,2.478,0,0,1,.96.108,12.744,12.744,0,0,0,8.254-.927,21.732,21.732,0,0,1,6.266-1.872c2.659-.425,5.317-.861,7.962-1.349.691-.128,1.133-.18,1,.724-.1.724.4.727.913.812q15.863,2.7,31.729,5.438c-.746,1.984-.753,2.017-2.767,1.657q-14.576-2.619-29.139-5.255c-1.748-.327-3.379.39-5.035.717-8.64,1.709-17.264,3.493-25.894,5.238a8.03,8.03,0,0,1-1.585.131q-12.946.052-25.891.088a3.008,3.008,0,0,1-2.446-2.23c-.026-.272.082-.367.327-.363Z" transform="translate(-417.316 -68.29)"/><path class="a" d="M426.36,91.578H453.9c.079-.6-.426-.9-.514-1.5,2.093-.393,4.194-.8,6.3-1.175,7.589-1.349,15.185-2.672,22.767-4.057.825-.151,1.162-.063,1.028.809-.1.655.246.851.812.946q12.559,2.093,25.105,4.2c1.238.206,2.475.422,3.768.655a2.194,2.194,0,0,1-.118.4c-1.12,1.964-1.113,1.919-3.359,1.513q-12.641-2.292-25.3-4.521c-1.784-.327-3.478.3-5.193.6-7.635,1.31-15.263,2.688-22.9,4.021a12.916,12.916,0,0,1-2.194.154c-8.3,0-16.609-.056-24.909.056A2.639,2.639,0,0,1,426.36,91.578Z" transform="translate(-423.399 -79.384)"/></g><g transform="translate(171.918 311.51)"><path class="a" d="M516.3,108.419c-.76,2.056-.8,2.056-2.672,1.735-7.8-1.336-15.6-2.672-23.412-3.958-1.473-.242-2.9.327-4.348.576-6.957,1.169-13.908,2.387-20.865,3.572a9.494,9.494,0,0,1-1.585.1c-8.345,0-16.7-.052-25.033.056-1.614.023-2.259-.655-2.79-2.079h27.593l-.612-1.4c2.148-.373,4.256-.746,6.348-1.1,6.548-1.117,13.116-2.21,19.664-3.356.838-.147,1.277-.079,1.123.884-.1.6.223.717.75.8,5.965.946,11.924,1.922,17.886,2.884Z" transform="translate(-435.591 -102.509)"/><path class="a" d="M519.352,123.677c-1.018,1.964-1.018,1.964-2.852,1.689-6.823-1.012-13.646-2.046-20.476-3.032-1.768-.255-3.474.37-5.193.638-5.687.887-11.358,1.872-17.026,2.809a9.121,9.121,0,0,1-1.467.052H447.157c-2.1,0-2.1,0-2.947-2.184h27.433c.16-.537-.39-.753-.363-1.27,2.714-.478,5.438-.982,8.185-1.441,4.983-.864,9.973-1.709,14.956-2.6.733-.131,1.241-.19,1.08.789-.108.655.223.776.815.868,7.059,1.1,14.111,2.243,21.167,3.372Z" transform="translate(-441.388 -113.109)"/></g><g transform="translate(175.051 363.798)"><path class="a" d="M445.16,277.114c.291-1.408.877-2.01,2.4-1.994,8.385.092,16.773.042,25.158.049.615,0,1.175.063,1.522-.655.327-.655.8-.088,1.133.059q9.7,4.341,19.4,8.725c.868.39,1.83.684,1.352,1.964a2.113,2.113,0,0,0,1.27-.4c6.715-3.244,13.44-6.47,20.122-9.776.982-.478,1.172-.111,1.6.6.54.884-.063,1.008-.606,1.29q-10.781,5.644-21.55,11.308a1.693,1.693,0,0,1-1.784-.02c-7.055-3.559-14.13-7.078-21.19-10.628a4.767,4.767,0,0,0-2.216-.527C462.935,277.124,454.1,277.114,445.16,277.114Z" transform="translate(-445.16 -270.28)"/><path class="a" d="M451.45,264.9c.327-1.46,1.152-1.85,2.577-1.837,8.342.082,16.7.039,25.033.039.56,0,1.106.1,1.45-.6.328-.635.792-.059,1.133.072,5.2,2.02,10.385,4.073,15.578,6.119.491.193.982.429,1.477.58,1.185.354,2.216.789,1.605,2.321.53.213.825-.075,1.133-.2,6.122-2.567,12.251-5.117,18.335-7.756,1.041-.452,1.385-.131,1.8.72.537,1.093-.491.936-.884,1.11-6.445,2.855-12.911,5.654-19.357,8.511a2.292,2.292,0,0,1-2.053-.029c-6.319-2.839-12.651-5.641-18.97-8.476a5.3,5.3,0,0,0-2.246-.465q-12.641.026-25.279,0A2.822,2.822,0,0,1,451.45,264.9Z" transform="translate(-449.391 -262.215)"/></g><g transform="translate(177.516 322.189)"><path class="a" d="M452.69,139.568h27.427c.134-.56-.386-.783-.4-1.31,2.619-.4,5.258-.8,7.894-1.192,4.237-.629,8.48-1.241,12.716-1.886.56-.085,1.012-.167.89.619-.115.73.383.786.884.848l12.647,1.529c2.593.327,5.183.655,7.766.956,0,.147.043.236,0,.288-1.31,2.406-1.31,2.406-4.03,1.964-5.566-.9-11.112-1.817-16.675-2.688-1.6-.252-3.16.295-4.728.524-4.963.73-9.917,1.552-14.874,2.325a9.216,9.216,0,0,1-1.346.049c-8.427,0-16.851-.043-25.275.039C454.081,141.634,453.119,141.307,452.69,139.568Z" transform="translate(-452.69 -135.129)"/><path class="a" d="M460,153.976h3.091c4.947,0,9.9.1,14.841-.033,3.67-.1,7.3.177,11.024-.694,5.3-1.234,10.8-1.526,16.236-2.259.747-.1,1.107.02.96.835-.121.671.327.678.8.73,4.1.462,8.185.943,12.291,1.411,1.581.18,3.163.37,4.747.5.681.052.582.291.36.753a1.843,1.843,0,0,1-2.144,1.238c-4.826-.557-9.671-.946-14.507-1.454a34.2,34.2,0,0,0-6.728.246,227.311,227.311,0,0,1-24.122.917c-4.62-.065-9.243-.1-13.859.036C461.31,156.248,460.363,155.751,460,153.976Z" transform="translate(-457.607 -145.778)"/><path class="a" d="M496.134,172.533c-9.861,0-19.719-.016-29.578.023-.982,0-.982-.416-1.021-1.162-.033-.871.262-1.09,1.113-1.087q12.7.046,25.4,0c.655,0,1.555.327,1.414-.956-.052-.5.484-.327.756-.327,4.976-.37,9.95-.71,14.923-1.094.7-.052.756.3.7.8-.069.606.115.828.779.864,4.98.288,9.956.655,14.936.933.822.046,1.107.219,1.08,1.113s-.36.946-1.1.907c-5.107-.275-10.212-.655-15.319-.7-4.044-.042-8.09.327-12.134.507-.655.029-1.31.085-1.964.128Z" transform="translate(-461.328 -157.187)"/></g><g transform="translate(179.022 352.535)"><path class="a" d="M457.29,254.317a1.962,1.962,0,0,1,2.292-1.725c8.382.065,16.766.033,25.151.036.6,0,1.231.121,1.5-.681.138-.413.494-.311.828-.2,5.566,1.765,11.092,3.542,16.652,5.271.691.216.655.655.589,1.133-.1.94.226.982,1.025.681,5.536-2.04,11.092-4.034,16.645-6.044a1.221,1.221,0,0,1,1.755,1.152c.049.465-.3.432-.53.517q-9.267,3.437-18.541,6.894a1.652,1.652,0,0,1-1.28-.2q-8.581-3.208-17.143-6.46a5.893,5.893,0,0,0-2.141-.386Q470.759,254.331,457.29,254.317Z" transform="translate(-457.29 -243.845)"/><path class="a" d="M479.628,228.995h12.887c.494,0,1.133.193,1-.724-.069-.484.246-.484.622-.435l14.818,1.964c.73.094,1.107.37.982,1.162-.128.73.079.949.9.789q7.141-1.4,14.317-2.645c.445-.075,1.231-.851,1.588.262.252.792.219,1.195-.812,1.391-5.085.982-10.149,2.053-15.224,3.087-1.539.327-3-.268-4.466-.527-4.1-.714-8.185-1.539-12.264-2.292a7.375,7.375,0,0,0-1.346-.063h-25.9c-.825,0-1.139-.164-1.123-1.061.016-.8.311-.923,1.015-.917C470.955,229.011,475.29,228.995,479.628,228.995Z" transform="translate(-462.891 -227.815)"/><path class="a" d="M463.22,243.549c.311-1.467,1.093-1.794,2.4-1.784,8.385.069,16.769.039,25.154.023.439,0,1.077.327,1.2-.563.043-.3.5-.124.76-.075q7.367,1.473,14.753,2.947c.629.124.927.4.818,1.064-.131.818.167.93.949.717,5.153-1.395,10.316-2.737,15.48-4.083.363-.094.963-.566.982.262.016.507.655,1.231-.472,1.555-5.484,1.562-10.945,3.2-16.416,4.8a2.483,2.483,0,0,1-1.437-.082c-5.084-1.473-10.179-2.92-15.26-4.4a8.888,8.888,0,0,0-2.521-.377q-12.52.023-25.033,0Z" transform="translate(-461.279 -236.718)"/></g><g transform="translate(181.614 338.605)"><path class="a" d="M495.8,188.891H466.6c-1.208,0-1.654-.655-1.261-1.847.219-.655.753-.373,1.139-.377q11.04-.023,22.083,0H492.5c.278,0,.8.164.72-.36-.173-1.254.655-1.025,1.375-1.025h13.983c.766,0,1.2.154,1.039,1.005s.38.864,1,.861h14.6c.655,0,1.212-.118,1.212.936s-.593.851-1.175.851Z" transform="translate(-465.205 -185.267)"/><path class="a" d="M479.536,201.415H492.3c.442,0,1.107.327,1.172-.6.023-.344.468-.223.733-.216q7.479.241,14.956.491c.429,0,.733.092.655.606-.108.743.226.835.9.8,4.977-.308,9.956-.557,14.933-.855.684-.042,1.035.1.9.832-.1.53.419,1.31-.782,1.352-5.238.216-10.448.655-15.676.746-3.173.049-6.355-.419-9.531-.655s-6.424-.625-9.658-.612c-8.1.026-16.193,0-24.287,0-.625,0-1.192.115-1.152-.894.033-.832.285-1.022,1.07-1.015C470.879,201.435,475.2,201.415,479.536,201.415Z" transform="translate(-465.381 -195.561)"/><path class="a" d="M479.725,215.947h12.883c.576,0,1.018.036.966-.8s.655-.442.982-.416c3.137.242,6.27.534,9.4.805,1.67.147,3.336.291,5.006.422.566.043,1.09.079.982.874-.063.445.157.53.582.485,4.954-.527,9.91-1.028,14.864-1.558,1.31-.141,1.418-.059,1.31,1.231-.046.488-.252.589-.681.638-5.268.635-10.523,1.463-15.807,1.86-2.485.187-5.029-.445-7.53-.724a111.57,111.57,0,0,0-13.908-1.107c-7.321.108-14.641.026-21.959.033-.635,0-1.149.092-1.149-.9,0-1.044.6-.858,1.188-.858Z" transform="translate(-465.517 -205.012)"/></g><g transform="translate(221.909 277.948)"><path class="a" d="M588.28,24.512c.183-.815.327-1.362.429-1.912.5-2.37.5-2.364,2.835-2.675.563-.075,1.015-.072.874.684s.255,1.074.946,1.212c.756.154,1.5.383,2.252.56.39.092.727.249.74.687s.517,1.005.167,1.382-.884-.026-1.241-.187C592.991,23.222,590.742,23.792,588.28,24.512Z" transform="translate(-588.28 -13.38)"/><path class="a" d="M594.714,0c0,1.261.029,2.138,0,3.015-.029.6.2.789.776.753.655-.039,1.31,0,1.964,0,.589,0,1.2-.19,1.195.855,0,.96-.484.92-1.139.913-1.467-.023-2.947,0-4.4,0-1.227,0-1.807-.838-1.149-1.886A41.543,41.543,0,0,1,594.714,0Z" transform="translate(-590.569)"/></g><g transform="translate(159.64 289.676)"><path class="a" d="M443.777,71.606c-2.911.327-5.441,1.136-8.1,1.136-8.214,0-16.429-.082-24.64.059-1.981.033-3-.655-3.565-2.475h27.525c-.675-1.395.18-1.346,1.1-1.6a4.506,4.506,0,0,1,4.567.982A23.364,23.364,0,0,0,443.777,71.606Z" transform="translate(-404.398 -57.796)"/><path class="a" d="M431.009,56.783a26.11,26.11,0,0,1-5.775.655c-7.891-.039-15.784-.1-23.674.056-2,.036-2.842-.812-3.467-2.541h27.593c.039-.655-.5-.923-.576-1.4,1.87-.733,2.079-.655,3.4.76C429.257,55.13,430.076,55.87,431.009,56.783Z" transform="translate(-398.092 -47.439)"/><path class="a" d="M589.721,57.257c-3.539-.557-6.875-1.074-10.225-1.608-1.418-.226-2.744.3-4.109.484-2.18.3-4.341.73-6.787,1.156a24.137,24.137,0,0,0,3.529-4.584c.16-.282.448-.3.74-.35q2.714-.452,5.429-.94c.6-.108.982,0,.861.72s.3.881.913.982c2.141.308,4.276.655,6.414.982a1.585,1.585,0,0,1,1.146.6C588.245,55.512,588.916,56.281,589.721,57.257Z" transform="translate(-512.776 -46.286)"/><path class="a" d="M594.469,40.672a20.3,20.3,0,0,0-12.209.042c.557-1.5.982-2.695,1.45-3.889.056-.144.142-.37.242-.386,1.362-.232,2.724-.478,4.1-.616.475-.049.327.488.311.766-.075.681.187.907.861.956.809.056,1.607.393,2.406.38C593.369,37.9,594.174,38.825,594.469,40.672Z" transform="translate(-521.963 -35.82)"/><path class="a" d="M685.9,73.658c2.22-2.652,4.97-1.771,7.658-1.267a.507.507,0,0,1,.357.249c.154.582-1.385,2.069-2.007,1.964Z" transform="translate(-591.671 -60.045)"/><path class="a" d="M704.54,60.03c1.051-2.115,2.75-2.328,4.741-1.519C708.62,60.79,707.536,61.15,704.54,60.03Z" transform="translate(-604.208 -50.788)"/></g><g transform="translate(142.942 395.21)"><path class="a" d="M743.344,155.761a5.259,5.259,0,0,1-1.362-2.345c-.609-3.248,1.585-5.775,5.17-5.893,1.146-.039,2.292.026,3.438-.023.7-.029.9.213.913.907.033,2,.065,2-1.964,2h-1.719a2.469,2.469,0,0,0-2.619,2.708,2.368,2.368,0,0,0,2.639,2.645c2.619,0,5.238-.049,7.858.026,1.08.029,1.463-.206,1.441-1.382-.079-4.256,0-8.513-.049-12.769,0-.851.21-1.1,1.077-1.084,2.253.043,2.253,0,2.253,2.2,0,3.929.043,7.858-.026,11.786-.02,1.061.3,1.336,1.31,1.241a16.211,16.211,0,0,1,2.819,0c.851.069,1.1-.183,1.093-1.064-.046-4.292,0-8.588-.046-12.883,0-.982.183-1.31,1.241-1.277,2.167.092,2.171.023,2.171,2.187,0,4.869-.036,9.737.026,14.6,0,1.061-.327,1.257-1.31,1.254-9.822-.036-19.644,0-29.466-.036-.769,0-1.149.069-1.159,1.018-.029,3.074-1.964,4.911-5.114,5.042-1.1.039-2.213-.049-3.313.026-.8.052-1.005-.265-.92-.982a4.977,4.977,0,0,0,0-1.1c-.063-.612.213-.773.782-.753,1.061.033,2.124.016,3.189,0a1.1,1.1,0,0,0,1.215-.822,4.1,4.1,0,0,0,.063-2.4c-.1-.282-.517-.151-.792-.154-1.227,0-2.455-.029-3.683,0-.582.016-.786-.17-.776-.763.036-2.292,0-4.584.049-6.875a3.461,3.461,0,0,1,3.408-3.49c1.673-.075,3.353,0,5.029-.026.786,0,.93.327.917,1.035-.046,2.128.029,4.256-.039,6.381-.029.887.259,1.1,1.1,1.067C739.795,155.712,741.435,155.761,743.344,155.761Zm-9.514-2.793h-.046v-1.833c0-.35-.052-.589-.5-.671a1.948,1.948,0,0,0-2.6,2.05,12.8,12.8,0,0,1,0,1.585c-.148,1.012.2,1.31,1.234,1.267,1.942-.092,1.945-.023,1.922-1.909a4.829,4.829,0,0,1-.013-.491Z" transform="translate(-711.606 -110.632)"/><path class="a" d="M702.33,168.06c0,1.143-.02,2.292,0,3.434,0,.566-.154.8-.763.789q-3.13-.046-6.257,0c-.531,0-.678-.17-.714-.7-.167-2.439-.187-2.439,2.253-2.439,2.5,0,2.5,0,2.4-2.537-.056-1.444-.58-1.942-2.053-1.964h-.124c-2.721-.026-2.708-.026-2.4-2.789.056-.5.209-.733.74-.72,1.185.023,2.377-.056,3.559.026a3.4,3.4,0,0,1,3.274,3.225c.094,1.221.02,2.452.02,3.68Z" transform="translate(-689.294 -124.466)"/><g transform="translate(0 0)"><path class="a" d="M307.73,157.244a9.307,9.307,0,0,1-.851,4.967,7.039,7.039,0,0,1-7.059,3.876,7.594,7.594,0,0,1-5.893-6.165,23.456,23.456,0,0,1-.043-5.628,6.929,6.929,0,0,1,13.839.583C307.753,155.571,307.73,156.268,307.73,157.244Zm-3.415-.164c0-.982.046-1.964,0-2.947a3.507,3.507,0,0,0-7.014,0q-.088,2.878,0,5.759a3.668,3.668,0,0,0,3.441,3.624,3.751,3.751,0,0,0,3.579-3.631c.037-.924,0-1.863-.006-2.81Z" transform="translate(-197.583 -146.983)"/><path class="a" d="M120.233,154.4c2.124-1.493,4.154-1.729,6.2-.57a5.169,5.169,0,0,1,2.724,4.751,5.36,5.36,0,0,1-7.985,4.773c-.327-.18-.547-.733-1.162,0-.425.5-1.636.236-2.462.063-.327-.069-.2-.491-.2-.763q0-8.275-.023-16.547c0-.8.285-1.005,1-.92a3.93,3.93,0,0,0,.982,0c.773-.108.982.223.953.963C120.21,148.816,120.233,151.5,120.233,154.4Zm5.716,4.086a2.956,2.956,0,0,0-2.789-3.114,2.917,2.917,0,0,0-2.947,2.947,2.969,2.969,0,0,0,2.855,3.179A2.9,2.9,0,0,0,125.949,158.481Z" transform="translate(-78.925 -145.163)"/><path class="a" d="M395.7,154.063c0-2.619.082-5.173-.029-7.733-.063-1.4.786-1.084,1.552-1.123s1.346-.1,1.329,1.074c-.075,5.4-.026,10.8-.049,16.2,0,.435.3,1.182-.288,1.264-.792.111-1.761.416-2.426-.216-.3-.285-.327-.4-.674-.141a5.181,5.181,0,0,1-7.036-.982,6.037,6.037,0,0,1,.187-7.678c1.8-2.059,4.449-2.312,7.088-.678A1.845,1.845,0,0,0,395.7,154.063Zm-5.847,4.459a3,3,0,0,0,2.986,3.179,3.071,3.071,0,0,0,3.029-3.274,3.021,3.021,0,1,0-6.031.095Z" transform="translate(-260.172 -145.181)"/><path class="a" d="M6.583,154.382c-.982,3.14-2.01,6.263-2.891,9.425-.327,1.129-.743,1.585-1.964,1.513-1.906-.111-1.912-.023-1.355-1.794Q2.478,156.814,4.6,150.1c.488-1.545,2.03-1.909,3.16-2.7.4-.281.435.442.53.74,1.231,3.847,2.439,7.7,3.66,11.547.58,1.82,1.169,3.635,1.758,5.477a2.147,2.147,0,0,1-.413.118c-2.884.094-3.055-.131-3.847-2.947-.763-2.695-1.738-5.327-2.619-7.989Z" transform="translate(-0.052 -146.623)"/><path class="a" d="M192.837,170.395c.141-1.781,1.45-.779,2.213-.96.877-.21.691.557.691,1.041,0,2.74-.016,5.477.02,8.218,0,.724-.183,1.156-.946.96-.655-.167-1.565.582-1.991-.544-.075-.2-.327.065-.488.167a5.215,5.215,0,0,1-7.118-1.12,5.631,5.631,0,0,1,.3-7.2c1.876-2.043,4.492-2.269,7.1-.612A1.24,1.24,0,0,0,192.837,170.395Zm-2.783,7.238a3.078,3.078,0,0,0,3.061-3.15,3.039,3.039,0,1,0-6.077.115,3,3,0,0,0,3.015,3.035Z" transform="translate(-123.815 -161.359)"/><path class="a" d="M82.814,170.419c-.2-1.355.655-1.012,1.31-1.1,1.234-.173,1.676.216,1.614,1.545-.121,2.567-.072,5.147,0,7.72,0,.832-.259,1.172-1.031.982-.655-.154-1.608.551-1.964-.6-.206.115-.419.219-.625.327a4.963,4.963,0,0,1-5.851-.226,5.533,5.533,0,0,1,2.018-9.822A5.469,5.469,0,0,1,82.814,170.419Zm-2.862,7.137a3.051,3.051,0,1,0-2.947-3.077,2.947,2.947,0,0,0,2.947,3.077Z" transform="translate(-49.793 -161.281)"/><path class="a" d="M356.1,173.3v2.825a3.878,3.878,0,0,1-2.7,3.837,7.8,7.8,0,0,1-5.749-.079,3.748,3.748,0,0,1-2.57-3.673c-.016-2.046.026-4.093-.023-6.136-.016-.76.327-.855.949-.864,2.341-.043,2.341-.063,2.341,2.272,0,1.31-.023,2.619,0,3.929.033,1.545.828,2.328,2.259,2.292s2.158-.779,2.167-2.357c0-1.758.026-3.516,0-5.278,0-.635.19-.832.832-.858,2.5-.1,2.5-.128,2.5,2.377Z" transform="translate(-232.102 -161.314)"/><path class="a" d="M230.382,169.292a5.284,5.284,0,0,1,5.016-1.31,4.017,4.017,0,0,1,3.29,4.115c0,1.964-.046,3.929.02,5.893.029.884-.268,1.175-1.107,1.064a4.784,4.784,0,0,0-1.1,0c-.6.063-.773-.19-.763-.769.026-1.676.063-3.356,0-5.029-.1-2.171-1.817-3.3-3.726-2.5a2.383,2.383,0,0,0-1.605,2.37c.02,1.636-.036,3.274.023,4.911.026.792-.193,1.048-1.015,1.035-2.007-.029-2.007,0-2.007-1.964V170.1c0-1.715,0-1.719,1.774-1.7C229.743,168.4,230.467,168.175,230.382,169.292Z" transform="translate(-152.968 -160.393)"/><path class="a" d="M51.21,170.06a4.1,4.1,0,0,1,4.21-1.1c-.262.655-.511,1.277-.756,1.9a.674.674,0,0,1-.714.481,2.665,2.665,0,0,0-2.586,2.806c-.023,1.594-.056,3.11,0,4.662.033.792-.246.943-.982.94-1.964,0-1.964.02-1.964-2.007v-7.117c0-1.8-.37-1.636,1.722-1.657C50.739,168.957,51.378,168.862,51.21,170.06Z" transform="translate(-32.566 -161.057)"/><path class="a" d="M165.983,175.455c0,1.391-.049,2.783.02,4.168.039.8-.245.936-.982.93-2.017,0-2.017.02-2.017-1.964,0-2.495.046-4.986-.026-7.478-.026-.953.291-1.261,1.185-1.13a2.4,2.4,0,0,0,.733,0c.851-.128,1.136.2,1.094,1.067C165.931,172.512,165.983,173.985,165.983,175.455Z" transform="translate(-109.635 -161.836)"/><path class="a" d="M165.892,156.319c.458,1.444-.551,1.225-1.522,1.349-1.434.183-1.339-.58-1.454-1.6-.18-1.6.769-1.326,1.752-1.437C166.134,154.463,166.01,155.321,165.892,156.319Z" transform="translate(-109.579 -151.513)"/><path class="a" d="M18.111,193.94a1.188,1.188,0,0,1-.075.245c-2.184,2.308-2.688,2.292-4.983-.245Z" transform="translate(-8.797 -177.97)"/><path class="a" d="M986.824,155.552a4.2,4.2,0,0,1-1.221-4.895c.828-2.151,2.688-2.99,4.852-3.147,1.381-.1,2.779,0,4.171-.029.551,0,.776.115.805.733.108,2.171.138,2.171-2.033,2.171-.818,0-1.637-.02-2.452,0a2.54,2.54,0,0,0-2.387,2.727A2.252,2.252,0,0,0,991,155.548c2.74,0,5.484-.056,8.224.029,1.044.033,1.162-.363,1.156-1.244-.039-4.214,0-8.431-.039-12.644,0-.9.187-1.188,1.133-1.159,2.151.065,2.154,0,2.154,2.2,0,4.872-.026,9.74.02,14.609,0,.933-.2,1.241-1.2,1.234-6.79-.046-13.584,0-20.374-.052-1.123,0-1.414.282-1.408,1.4.02,3.85-2.819,5.955-6.5,4.947a.429.429,0,0,1-.377-.5v-.736c0-1.657,0-1.657,1.693-1.663,1.755,0,2.033-.262,2.049-2.079.026-2.7.046-5.4,0-8.1-.023-.92.229-1.192,1.159-1.162,2.014.059,2,0,2.017,1.964,0,.933-.3,2.167.167,2.721.563.655,1.84.17,2.806.213S985.619,155.552,986.824,155.552Z" transform="translate(-877.119 -110.613)"/><path class="a" d="M888.562,173h-11.41a7.721,7.721,0,0,1-2.292-.242c-2.321-.717-3.834-2.533-3.673-4.462a4.879,4.879,0,0,1,4.475-4.174c1.748-.144,3.513-.1,5.268-.079.727,0,1.218-.079,1.048-.982S882.25,162,883.065,162c2.014.033,2.014,0,2.014,1.984,0,1.676.029,3.353,0,5.029-.016.687.079,1.025.9.982,1.715-.072,3.434-.056,5.15,0,.724.023.9-.226.874-.907-.052-1.1,0-2.207-.026-3.31-.023-.582.161-.743.75-.769,2.675-.108,2.675-.131,2.675,2.541s0,2.652,2.744,2.446c.537-.039.7-.206.691-.724-.029-1.185,0-2.374-.02-3.559-.016-.534.17-.655.7-.7,2.551-.154,2.551-.173,2.551,2.4,0,1.431-.069,2.865.023,4.292.063,1-.2,1.31-1.247,1.31C896.741,172.958,892.652,173,888.562,173Zm-9.586-3.028c3.133.023,3.133.023,3.009-2.377v-.245c.02-.344-.1-.53-.485-.527-1.676,0-3.356-.069-5.026.046a1.578,1.578,0,0,0-1.568,1.722c.072.946.832,1.349,1.742,1.378C877.4,169.992,878.183,169.969,878.976,169.969Z" transform="translate(-808.104 -125.056)"/><path class="a" d="M1074.67,149.409v-7.858c0-.655.059-1.012.9-1.012,2.39,0,2.39-.043,2.39,2.331,0,4.869-.023,9.737.019,14.6,0,.868-.236,1.1-1.09,1.087-2.206-.036-2.206,0-2.206-2.158Z" transform="translate(-944.974 -110.622)"/><path class="a" d="M953.556,198.66c.868.108,1.555.465,1.539,1.408-.02.877-.655,1.267-1.483,1.257s-1.558-.282-1.571-1.283S952.783,198.811,953.556,198.66Z" transform="translate(-862.493 -149.714)"/><path class="a" d="M926.134,202.409c-.828-.085-1.562-.409-1.536-1.359a1.3,1.3,0,0,1,1.477-1.28c.851,0,1.549.409,1.555,1.329S926.939,202.3,926.134,202.409Z" transform="translate(-844.036 -150.46)"/><path class="a" d="M938.681,202.415c-.812-.154-1.595-.432-1.513-1.408.075-.91.782-1.264,1.653-1.231s1.448.472,1.441,1.31C940.259,202.045,939.5,202.323,938.681,202.415Z" transform="translate(-852.487 -150.463)"/><path class="a" d="M893.136,152.914c-.864-.118-1.607-.468-1.578-1.4.026-.861.714-1.234,1.549-1.227s1.565.36,1.529,1.342C894.607,152.521,893.906,152.81,893.136,152.914Z" transform="translate(-821.813 -117.175)"/></g><path class="a" d="M881.573,152.869c-.8-.063-1.467-.363-1.453-1.28,0-.982.71-1.287,1.585-1.27s1.5.406,1.5,1.261C883.194,152.506,882.448,152.833,881.573,152.869Z" transform="translate(-814.12 -117.199)"/></g></g></svg>