<svg xmlns="http://www.w3.org/2000/svg" xmlns:xlink="http://www.w3.org/1999/xlink" width="562.488" height="562.488" viewBox="0 0 562.488 562.488"><defs><style>.a{fill:#fff;}.b{fill:none;stroke:#d2345b;stroke-width:2px;}.c{fill:#d2345b;font-size:38px;font-family:AvenirLTStd-Black, Avenir LT Std;font-weight:800;}.d{filter:url(#a);}</style><filter id="a" x="0" y="0" width="562.488" height="562.488" filterUnits="userSpaceOnUse"><feOffset input="SourceAlpha"/><feGaussianBlur stdDeviation="25.5" result="b"/><feFlood flood-opacity="0.161"/><feComposite operator="in" in2="b"/><feComposite in="SourceGraphic"/></filter></defs><g transform="translate(76.5 76.5)"><g class="d" transform="matrix(1, 0, 0, 1, -76.5, -76.5)"><rect class="a" width="409.488" height="409.488" rx="20" transform="translate(76.5 76.5)"/></g><g transform="translate(101.348 76.781)"><path class="b" d="M88.994,85.632c12.193,0,19.334-47.354,21.837-67.714l.077-.63-.622-.125a108.848,108.848,0,0,0-42.579.072l-.62.127.077.628C69.67,38.328,76.812,85.632,88.994,85.632ZM68.6,18.454a107.475,107.475,0,0,1,40.8-.07c-.611,4.917-1.3,9.881-2.073,14.76a73.743,73.743,0,0,0-36.66-.02C69.9,28.275,69.2,23.342,68.6,18.454ZM107.1,34.5c-4.222,26.3-10.616,49.767-18.111,49.767S75.1,60.776,70.879,34.478a72.314,72.314,0,0,1,36.227.017Zm52.862,40.672a13.211,13.211,0,1,0-15.936-19.176,72.565,72.565,0,0,0-22.1-17.321V7.653H56.055v30.98a72.5,72.5,0,0,0-39.944,65c0,2.449.127,4.917.367,7.337a7.645,7.645,0,0,0-1.321,1.755,5.9,5.9,0,1,0-1.419,11.623h5.368a72.852,72.852,0,1,0,138.364-45.47A7.024,7.024,0,0,0,159.966,75.168ZM13.738,122.974a4.528,4.528,0,1,1,0-9.056,4.586,4.586,0,0,1,1.543.266l.6.217.26-.581a6.308,6.308,0,0,1,11.9,1.108l.186.777.739-.3a3.879,3.879,0,0,1,1.457-.285,3.926,3.926,0,0,1,0,7.851ZM56.055,167a71.635,71.635,0,0,1-35.514-42.662h9.877a5.294,5.294,0,0,0,0-10.587,5.229,5.229,0,0,0-1.249.151,7.652,7.652,0,0,0-11.4-3.974c-.18-2.086-.292-4.2-.292-6.3A71.123,71.123,0,0,1,56.055,40.192ZM155.381,50.935a11.83,11.83,0,0,1,4.838,22.636c0-.087.027-.167.027-.256a7.043,7.043,0,0,0-7.035-7.033,7.13,7.13,0,0,0-1.806.23,9.2,9.2,0,0,0-7.806-4.891A11.8,11.8,0,0,1,155.381,50.935ZM115.256,9.022c-.968,8.584-10.333,87.531-26.263,87.531S63.7,17.606,62.73,9.022Zm5.3,158.688a71.037,71.037,0,0,1-63.14-.015V9.022h3.927c.941,8.539,10.248,88.9,27.643,88.9s26.7-80.361,27.643-88.9h3.928Zm39.863-64.081a71.534,71.534,0,0,1-38.5,63.379V40.22a71.3,71.3,0,0,1,21.42,17.063,13.236,13.236,0,0,0-1.125,4.4,9.22,9.22,0,0,0-7.708,6.276,6.188,6.188,0,0,0-1.622-.215,6.3,6.3,0,0,0,0,12.6h20.322a6.945,6.945,0,0,0,3.07-.735,71.211,71.211,0,0,1,4.145,24.014Zm-7.209-24.647H132.886a4.931,4.931,0,1,1,0-9.861,4.867,4.867,0,0,1,1.831.358l.744.3.186-.777a7.833,7.833,0,0,1,14.775-1.382l.26.581.6-.215a5.668,5.668,0,1,1,1.933,11Zm-46,90.975h4.338v1.369h-4.338Zm-6.791,0h4.338v1.369h-4.338Zm-13.587,0h4.33v1.369H86.825Zm6.791,0H97.96v1.369H93.622Zm-20.382,0h4.337v1.369H73.237Zm6.791,0h4.337v1.369H80.031Zm-13.587,0h4.338v1.369H66.443Zm40.763-5.626h4.338V165.7h-4.338Zm-6.791,0h4.338V165.7h-4.338Zm13.587,0h4.338V165.7H114Zm-27.175,0H91.16V165.7H86.825Zm6.791,0h4.338V165.7H93.62Zm-20.382,0h4.339V165.7h-4.34Zm6.791,0h4.339V165.7H80.031Zm-20.382,0h4.338V165.7H59.649Zm6.791,0h4.338V165.7H66.443Zm33.969-5.631h4.338v1.369h-4.338Zm13.587,0h4.338v1.369H114Zm-27.175,0H91.16v1.369H86.825Zm-13.587,0h4.344v1.369h-4.34Zm6.791,0h4.344v1.369H80.031Zm-13.587,0h4.348v1.369H66.443Zm40.763-5.628h4.338v1.369H107.2Zm-6.791,0h4.338v1.369H100.41Zm13.587,0h4.338v1.369H114Zm-27.175,0H91.16v1.369H86.825Zm6.791,0h4.338v1.369H93.614Zm-20.382,0h4.346v1.369h-4.34Zm-13.587,0h4.338v1.369H59.649Zm6.791,0h4.35v1.369H66.443Zm40.763-5.631h4.338v1.369H107.2Zm-6.791,0h4.338v1.369h-4.338Zm-13.587,0h4.34v1.369H86.825Zm6.791,0H97.95v1.369H93.612Zm-20.382,0h4.347v1.369h-4.34Zm6.791,0h4.347v1.369H80.031Zm-20.382,0h4.338v1.369H59.65Zm6.791,0h4.355v1.369H66.443Zm40.763-5.628h4.338v1.368h-4.339Zm-6.791,0h4.338v1.368H100.4Zm13.587,0h4.338v1.368H114Zm-27.175,0H91.16v1.368H86.825Zm6.791,0h4.338v1.368H93.607Zm-13.587,0h4.349v1.368H80.031Zm20.382-5.628h4.338v1.369H100.4Zm-27.175,0h4.351v1.369h-4.34Zm6.791,0h4.351v1.369H80.031Zm-20.382,0h4.338v1.369H59.65Zm6.791,0h4.359v1.369H66.443Zm40.763-5.629h4.338v1.368H107.19Zm-6.791,0h4.338v1.368H100.4Zm13.587,0h4.338v1.368H114Zm-27.175,0H91.16v1.368H86.825Zm6.791,0h4.338v1.368H93.6Zm-20.382,0h4.356v1.368h-4.34Zm6.791,0h4.356v1.368H80.031Zm-13.587,0h4.36v1.368H66.443Zm47.556-5.629h4.338V126.3H114Zm-27.175,0H91.16V126.3H86.825Zm6.791,0h4.338V126.3H93.6Zm-33.969,0h4.338V126.3H59.65Zm6.791,0h4.365V126.3H66.443Zm40.763-5.628h4.338v1.368h-4.339Zm-6.791,0h4.338v1.368h-4.339Zm13.587,0h4.338v1.368H114Zm-27.175,0H91.16v1.368H86.825Zm6.791,0h4.338v1.368H93.6Zm-20.382,0h4.362v1.368h-4.34Zm6.791,0h4.362v1.368H80.031Zm-20.382,0h4.338v1.368H59.65Zm6.791,0h4.37v1.368H66.443ZM86.8,113.668H91.16v1.369H86.825Zm6.791,0h4.338v1.369H93.589Zm-13.587,0h4.367v1.369H80.031Zm-13.587,0h4.372v1.369H66.443Zm40.763-5.628h4.338v1.368h-4.339Zm-6.791,0h4.338v1.368h-4.339Zm13.587,0h4.338v1.368H114Zm-27.175,0H91.16v1.368H86.825Zm6.791,0h4.338v1.368H93.59Zm-20.382,0h4.369v1.368h-4.34Zm6.791,0h4.369v1.368H80.031Zm-20.382,0h4.338v1.368H59.65Zm6.791,0h4.376v1.368H66.443Zm40.763-5.628h4.338v1.368h-4.339Zm-6.791,0h4.338v1.368h-4.339Zm13.587,0h4.338v1.368H114Zm-27.175,0H91.16v1.368H86.825Zm-13.587,0h4.371v1.368h-4.34Zm6.791,0h4.371v1.368H80.031Zm-13.587,0h4.375v1.368H66.443Zm40.763-5.629h4.338v1.369h-4.339Zm-47.556,0h4.338v1.369H59.65Zm6.791,0h4.377v1.369H66.443Z" transform="translate(15.188 -7.653)"/><text class="c" transform="translate(96 243.049)"><tspan x="-96.387" y="0">DAMMAM</tspan></text></g></g></svg>