<svg xmlns="http://www.w3.org/2000/svg" xmlns:xlink="http://www.w3.org/1999/xlink" width="562.488" height="562.488" viewBox="0 0 562.488 562.488"><defs><style>.a{fill:#fff;}.b{fill:none;stroke:#d2345b;stroke-linecap:round;stroke-linejoin:round;stroke-miterlimit:79.84;stroke-width:4px;fill-rule:evenodd;}.c{fill:#d2345b;font-size:39px;font-family:AvenirLTStd-Black, Avenir LT Std;font-weight:800;}.d{filter:url(#a);}</style><filter id="a" x="0" y="0" width="562.488" height="562.488" filterUnits="userSpaceOnUse"><feOffset input="SourceAlpha"/><feGaussianBlur stdDeviation="25.5" result="b"/><feFlood flood-opacity="0.161"/><feComposite operator="in" in2="b"/><feComposite in="SourceGraphic"/></filter></defs><g transform="translate(76.5 76.5)"><g transform="translate(0 0)"><g class="d" transform="matrix(1, 0, 0, 1, -76.5, -76.5)"><rect class="a" width="409.488" height="409.488" rx="20" transform="translate(76.5 76.5)"/></g><g transform="translate(123.87 57.328)"><path class="b" d="M19.587,32.5,22.312-9.755h5.225" transform="translate(36.179 183.572)"/><path class="b" d="M21.311,126.366l2.264-39.116H27.18l1.171-39.53h3.306l1.3-42.67h3.048l2.131-52.5,3.412,65.468H45.54l.2,41.628h4.17l.452,40.785" transform="translate(42.404 47.451)"/><path class="b" d="M27.611-15.38h4.721l.512,41.624" transform="translate(65.154 163.261)"/><path class="b" d="M28.746-6.353h6.086l.848,25.726" transform="translate(69.253 195.857)"/><path class="b" d="M7.493-.618H62.982" transform="translate(-7.493 216.567)"/><path class="b" d="M30.374-.618H85.868" transform="translate(75.131 216.567)"/><text class="c" transform="translate(77.356 281.611)"><tspan x="-62.108" y="0">DUBAI</tspan></text></g></g></g></svg>