<svg xmlns="http://www.w3.org/2000/svg" width="37.181" height="30.216" viewBox="0 0 37.181 30.216"><defs><style>.a{fill:#6b6b6b;}</style></defs><path class="a" d="M37.181,5.825a15.23,15.23,0,0,1-4.381,1.2,7.64,7.64,0,0,0,3.354-4.22,15.281,15.281,0,0,1-4.844,1.851,7.633,7.633,0,0,0-13,6.956A21.655,21.655,0,0,1,2.589,3.644,7.638,7.638,0,0,0,4.948,13.828a7.6,7.6,0,0,1-3.453-.954A7.634,7.634,0,0,0,7.613,20.45a7.646,7.646,0,0,1-3.445.13,7.634,7.634,0,0,0,7.126,5.3A15.337,15.337,0,0,1,0,29.037a21.6,21.6,0,0,0,11.693,3.427c14.163,0,22.164-11.961,21.681-22.69a15.53,15.53,0,0,0,3.806-3.949Z" transform="translate(0 -2.248)"/></svg>