<svg xmlns="http://www.w3.org/2000/svg" width="37.181" height="37.181" viewBox="0 0 37.181 37.181"><defs><style>.a{fill:#6b6b6b;}</style></defs><path class="a" d="M18.59,3.351c4.964,0,5.552.019,7.514.108,5.038.229,7.391,2.62,7.621,7.621.09,1.96.107,2.548.107,7.512s-.019,5.552-.107,7.512c-.231,5-2.578,7.391-7.621,7.621-1.961.09-2.547.108-7.514.108s-5.552-.019-7.512-.108c-5.05-.231-7.391-2.632-7.621-7.622-.09-1.96-.108-2.547-.108-7.512s.02-5.551.108-7.512c.231-5,2.578-7.391,7.621-7.621,1.961-.088,2.548-.107,7.512-.107ZM18.59,0c-5.049,0-5.681.022-7.664.112C4.175.421.423,4.167.113,10.925.022,12.909,0,13.542,0,18.59s.022,5.682.112,7.665c.31,6.751,4.056,10.5,10.813,10.813,1.985.09,2.617.112,7.665.112s5.682-.022,7.665-.112c6.745-.31,10.507-4.056,10.812-10.813.091-1.983.113-2.617.113-7.665s-.022-5.681-.112-7.664C36.766,4.181,33.015.423,26.257.113,24.273.022,23.639,0,18.59,0Zm0,9.044a9.547,9.547,0,1,0,9.546,9.546A9.547,9.547,0,0,0,18.59,9.044Zm0,15.743a6.2,6.2,0,1,1,6.2-6.2A6.2,6.2,0,0,1,18.59,24.787Zm9.924-18.35a2.231,2.231,0,1,0,2.229,2.231A2.232,2.232,0,0,0,28.515,6.437Z" transform="translate(0)"/></svg>