<svg xmlns="http://www.w3.org/2000/svg" xmlns:xlink="http://www.w3.org/1999/xlink" width="212.66" height="212.66" viewBox="0 0 212.66 212.66"><defs><style>.a{fill:url(#a);}.b{fill:#fff;}</style><linearGradient id="a" x1="-0.345" y1="-10.346" x2="-0.345" y2="-10.335" gradientUnits="objectBoundingBox"><stop offset="0" stop-color="#f95d5d"/><stop offset="1" stop-color="#d2345b"/></linearGradient></defs><g transform="translate(0 -0.001)"><g transform="translate(0 0)"><rect class="a" width="150.373" height="150.373" rx="15" transform="translate(0 106.33) rotate(-45)"/><path class="b" d="M155.324,44.39H38.716a2.042,2.042,0,0,0-2.155,2.155v10.8H157.49v-10.8a2.042,2.042,0,0,0-2.167-2.155ZM45.193,53.023H40.883V48.713h4.311Zm8.644,0h-4.3V48.713H53.86Zm8.633,0H58.16V48.713h4.311Zm90.7,0H68.948V48.713h84.22Z" transform="translate(10.566 12.247)"/><path class="b" d="M147.823,67.23H44.17v34.555H147.823ZM125.588,78.676l2.8,2.813V71.507h4.322V81.49l2.8-2.813,3.029,3.04L130.6,89.658l-7.941-7.941ZM72.27,97.463H50.716V91.2a6.807,6.807,0,0,1,2.813-5.4l3.233-2.155-1.724-5.184V78.03a6.478,6.478,0,0,1,12.955,0v.431L66.2,83.645,69.445,85.8a6.807,6.807,0,0,1,2.8,5.4ZM85.2,84.507H80.88v4.322H76.569V84.507H72.247V80.185h4.322V75.874H80.88v4.311H85.2ZM96,97.463H91.68V93.152H96Zm8.633,0h-4.311V93.152h4.311Zm10.8-21.554h-4.969l-4.311,12.955H92.111L88.878,75.874h17.016l1.611-4.368h7.941Zm25.91,17.277a4.322,4.322,0,0,1-4.311,4.311H124.079a4.322,4.322,0,0,1-4.322-4.311V88.829h4.322v4.322H137V88.829h4.311Z" transform="translate(11.595 14.839)"/><path class="b" d="M61.822,76.8a2.167,2.167,0,0,0-4.322,0l2.155,6.478Z" transform="translate(13.845 15.9)"/><path class="b" d="M89.608,82.972h7.555l1.293-4.322H88.53Z" transform="translate(17.527 16.386)"/><path class="b" d="M65.783,87.086,60.168,83.41l-5.615,3.676a1.963,1.963,0,0,0-.862,1.724v2.167H66.645V89.025A2.734,2.734,0,0,0,65.783,87.086Z" transform="translate(13.35 16.937)"/><rect class="b" width="4.322" height="8.633" transform="translate(126.768 154.684)"/><path class="b" d="M36.56,59.62v79.9a2.042,2.042,0,0,0,2.155,2.155h65c0,.647-.216,1.52-.216,2.167v8.633a15.122,15.122,0,1,0,30.233,0V143.84a7.407,7.407,0,0,0-.25-2.11h21.8a2.042,2.042,0,0,0,2.167-2.155V59.62Zm62.62,77.742H92.7V133.04h6.478Zm2.813-7.136-4.322-4.311,3.029-3.029,4.311,4.322Zm30.233-3.018,4.311-4.322,3.029,3.029-4.322,4.311Zm12.309,10.21h-6.512V133.1H144.5Zm8.633-30.233h-47.51v2.155a2.042,2.042,0,0,0,2.167,2.155h19.433a6.478,6.478,0,0,1,0,12.955h-4.322a2.042,2.042,0,0,0-2.155,2.167v6.693a10.584,10.584,0,0,1,8.417,8.417h0v.216a6.035,6.035,0,0,1,.216,1.951v8.633a10.8,10.8,0,1,1-21.554,0V143.9a6.035,6.035,0,0,1,.216-1.951v-.216h0a10.584,10.584,0,0,1,8.417-8.417v-6.693a6.364,6.364,0,0,1,6.478-6.478h4.322a2.167,2.167,0,0,0,0-4.322H107.825a6.353,6.353,0,0,1-6.478-6.478v-2.155H40.883V63.942H153.191Z" transform="translate(10.566 12.375)"/></g></g></svg>