<svg xmlns="http://www.w3.org/2000/svg" xmlns:xlink="http://www.w3.org/1999/xlink" width="212.66" height="212.66" viewBox="0 0 212.66 212.66"><defs><style>.a{fill:url(#a);}.b{fill:#fff;}</style><linearGradient id="a" x1="15.007" y1="-9.16" x2="15.007" y2="-9.152" gradientUnits="objectBoundingBox"><stop offset="0" stop-color="#f95d5d"/><stop offset="1" stop-color="#d2345b"/></linearGradient></defs><g transform="translate(0 -0.001)"><g transform="translate(0)"><rect class="a" width="150.373" height="150.373" rx="15" transform="translate(0 106.33) rotate(-45)"/><g transform="translate(3.765 44.075)"><g transform="translate(0)"><path class="b" d="M72.138,52.477a7.342,7.342,0,0,1,3.882,3.882,1.063,1.063,0,0,0,1.418.5,1.038,1.038,0,0,0,.489-.5,7.325,7.325,0,0,1,3.89-3.882,1.063,1.063,0,0,0,0-1.907,7.317,7.317,0,0,1-3.89-3.89,1.055,1.055,0,0,0-1.409-.489,1.08,1.08,0,0,0-.5.489,7.3,7.3,0,0,1-3.882,3.89,1.055,1.055,0,0,0,0,1.907Z" transform="translate(-11.211 -46.085)"/><path class="b" d="M132.975,213.839a11.671,11.671,0,0,1-6.186-6.186,1.687,1.687,0,0,0-3.038,0,11.629,11.629,0,0,1-6.177,6.186,1.688,1.688,0,0,0,0,3.038,11.578,11.578,0,0,1,6.177,6.186,1.691,1.691,0,0,0,3.038,0,11.62,11.62,0,0,1,6.186-6.186,1.687,1.687,0,0,0,0-3.038Z" transform="translate(-18.264 -71.159)"/><path class="b" d="M55.328,155c-6.625.11-11.477.338-11.544.346H41.86l8.093,29.975a6.54,6.54,0,1,0,12.659-3.291.843.843,0,0,0,0-.118Z" transform="translate(-6.571 -63.088)"/><path class="b" d="M99.322,78.88C91.6,81.994,80.309,86.171,71.06,87.986c-15.73,3.089-33.266,2.422-33.266,2.422h0l-9.848.338a14.152,14.152,0,0,0-12.751,9.173,12.743,12.743,0,0,0-4.844,25.021,13.037,13.037,0,0,0,2.43.236,14.006,14.006,0,0,0,1.561-.11,14.152,14.152,0,0,0,13.612,12.987l5.975.2v.059l2.92.076h-.371l1.3.051s1.359-.084,3.57-.169c1.688-.059,3.738-.118,6.059-.16h0c7.764-.152,18.447,0,25.215,1.4,6.329,1.35,17.806,5.215,26.051,8.118ZM14.257,118.188a5.966,5.966,0,1,1-3.063-11.528,5.907,5.907,0,0,1,3.063,0ZM43.979,138.1l-2.532.093Zm.228,0,1.367-.051-1.384.042Zm36.9-26.549-4.886,3.553a1.688,1.688,0,0,0-.608,1.848l1.865,5.738a1.688,1.688,0,0,1-2.582,1.873l-4.852-3.519a1.688,1.688,0,0,0-1.975,0l-4.886,3.544a1.688,1.688,0,0,1-2.582-1.865l1.848-5.772a1.688,1.688,0,0,0-.608-1.873l-4.886-3.553a1.678,1.678,0,0,1,.987-3.038h6.042a1.688,1.688,0,0,0,1.595-1.156l1.865-5.738a1.688,1.688,0,0,1,3.19,0l1.865,5.738a1.688,1.688,0,0,0,1.587,1.181h6.034a1.688,1.688,0,0,1,1.688,1.688A1.637,1.637,0,0,1,81.11,111.555Z" transform="translate(-0.027 -51.204)"/><path class="b" d="M123.482,157.128l6.751.068.937-93.208-6.751-.068-.1,10.27-.245.11h0l-.633,72.87.194.068Z" transform="translate(-19.328 -48.869)"/><path class="b" d="M209.958,116.4,201.9,108.53l-3.553,3.629,3.527,3.451H177.84v5.063h24.093l-3.57,3.443,3.519,3.671,8.059-7.738a2.532,2.532,0,0,0,.076-3.595.388.388,0,0,1-.059-.059Z" transform="translate(-27.845 -55.833)"/><rect class="b" width="14.186" height="5.089" transform="translate(129.258 59.701)"/><path class="b" d="M163.777,84.367l14.751-19.03.515,4.92,5.063-.523-1.139-11.148a2.532,2.532,0,0,0-2.751-2.228h-.076l-11.165,1.527.692,5.063,4.886-.667L159.76,81.244Z" transform="translate(-25.023 -47.687)"/><rect class="b" width="14.186" height="5.089" transform="translate(121.979 49.906) rotate(-52.19)"/><path class="b" d="M177.1,170.29l-14.262-19.35-4.093,3.013,14.3,19.409-4.886-.844-.844,5.013,10.971,1.9a2.532,2.532,0,0,0,2.937-2.076s0-.051,0-.076l1.57-11.165-5.063-.7Z" transform="translate(-24.865 -62.454)"/><rect class="b" width="5.089" height="14.186" transform="matrix(0.805, -0.593, 0.593, 0.805, 121.66, 74.745)"/></g></g></g></g></svg>