<svg xmlns="http://www.w3.org/2000/svg" xmlns:xlink="http://www.w3.org/1999/xlink" width="212.66" height="212.66" viewBox="0 0 212.66 212.66"><defs><style>.a{fill:url(#a);}.b,.c{fill:#fff;}.b{fill-rule:evenodd;}</style><linearGradient id="a" x1="-2.493" y1="-8.357" x2="-2.493" y2="-8.349" gradientUnits="objectBoundingBox"><stop offset="0" stop-color="#f95d5d"/><stop offset="1" stop-color="#d2345b"/></linearGradient></defs><g transform="translate(0 -0.001)"><g transform="translate(0 0)"><rect class="a" width="150.373" height="150.373" rx="15" transform="translate(0 106.33) rotate(-45)"/><path class="b" d="M108.7,113.92v80.591L58.99,180.258V139.194l38.87,2.228Z" transform="translate(-3.982 -13.392)"/><path class="b" d="M169.192,111.212,122.55,108.36l11.561,29.612,46.65-2.852Z" transform="translate(-13.926 -12.524)"/><path class="b" d="M121.74,113.92l10.852,27.5,38.861-2.228v41.063L121.74,194.511Z" transform="translate(-13.797 -13.392)"/><path class="b" d="M59.673,111.212,48.12,135.12l46.65,2.852,11.553-29.612Z" transform="translate(-2.283 -12.524)"/><path class="c" d="M129.057,74.869c0,4.532-3.376,7.283-8.329,7.924v4.354H116.1V82.742a10.92,10.92,0,0,1-8.793-6.186l7.257-3.257c.844,1.992,1.9,2.414,2.92,2.414a1.688,1.688,0,0,0,1.848-1.688c0-4.059-10.6-5.561-10.6-13.992,0-3.519,2.684-6.658,7.4-7.46V48.16h4.625v4.363c4.625.515,7.089,2.675,8.608,5.468L123.074,61c-.692-1.19-1.426-2.245-2.768-2.245s-2.321.422-2.321,2.118C117.951,63.763,129.057,66.008,129.057,74.869Z" transform="translate(-11.535 -3.126)"/><path class="c" d="M90.979,87.829c0-1.688.937-2.118,2.321-2.118s2.084,1.055,2.768,2.245l6.3-3c-1.519-2.8-3.983-4.962-8.6-5.468V75.12H89.131v4.405c-4.709.844-7.4,3.941-7.4,7.46,0,8.439,10.641,9.966,10.641,13.992a1.687,1.687,0,0,1-.143.726l9.814-.6C101.443,92.85,90.987,90.639,90.979,87.829Z" transform="translate(-7.535 -7.335)"/><path class="c" d="M154.133,101.821c0-8.861-11.106-11.106-11.122-13.992,0-1.688.937-2.118,2.321-2.118s2.084,1.055,2.776,2.245l6.3-3c-1.527-2.8-3.992-4.962-8.608-5.468V75.12h-4.625v4.405c-4.717.844-7.4,3.941-7.4,7.46,0,8.439,10.641,9.966,10.641,13.992a1.781,1.781,0,0,1-.16.768l9.857.6C154.116,102.167,154.133,102.023,154.133,101.821Z" transform="translate(-15.673 -7.335)"/><path class="c" d="M119.491,32.118a1.772,1.772,0,0,0,1.781-1.738V1.781a1.781,1.781,0,0,0-3.561,0v28.6a1.781,1.781,0,0,0,1.781,1.781Z" transform="translate(-13.159 4.392)"/><path class="c" d="M106.518,36.972a1.789,1.789,0,0,0,1.823-1.781V13.521a1.781,1.781,0,0,0-3.561,0V35.192A1.781,1.781,0,0,0,106.518,36.972Z" transform="translate(-11.137 2.559)"/><path class="c" d="M93.527,44.636a1.781,1.781,0,0,0,1.814-1.781V23.311a1.781,1.781,0,0,0-3.561,0V42.855a1.789,1.789,0,0,0,1.781,1.781Z" transform="translate(-9.104 1.031)"/><path class="c" d="M145.461,44.636a1.781,1.781,0,0,0,1.781-1.781h0V23.311a1.781,1.781,0,0,0-3.561,0V42.855a1.789,1.789,0,0,0,1.781,1.781Z" transform="translate(-17.219 1.031)"/><path class="c" d="M132.481,36.972a1.789,1.789,0,0,0,1.781-1.781h0V13.521a1.781,1.781,0,0,0-3.561,0V35.192A1.781,1.781,0,0,0,132.481,36.972Z" transform="translate(-15.19 2.559)"/></g></g></svg>