<svg xmlns="http://www.w3.org/2000/svg" xmlns:xlink="http://www.w3.org/1999/xlink" width="212.66" height="212.66" viewBox="0 0 212.66 212.66"><defs><style>.a{fill:url(#a);}.b{fill:#fff;}</style><linearGradient id="a" x1="23.35" y1="-12.849" x2="23.35" y2="-12.838" gradientUnits="objectBoundingBox"><stop offset="0" stop-color="#f95d5d"/><stop offset="1" stop-color="#d2345b"/></linearGradient></defs><g transform="translate(0 -0.001)"><g transform="translate(0 0)"><rect class="a" width="150.373" height="150.373" rx="15" transform="translate(0 106.33) rotate(-45)"/><g transform="translate(40.862 37.155)"><path class="b" d="M75,128.187l15.025,13.222c-.994,2.67-2.092,5.189-3.329,7.767a60.1,60.1,0,0,1-14.585-3.86c.208-2.774.566-5.64,1.017-8.4a51.64,51.64,0,0,1-8.622-4.993q-3.236,2.635-6.75,5.062a58.377,58.377,0,0,1-10.644-10.644q2.427-3.467,5.062-6.773a52.772,52.772,0,0,1-4.981-8.61c-2.774.451-5.628.821-8.414,1.017A60.1,60.1,0,0,1,35,97.375c2.577-1.225,5.1-2.311,7.755-3.305a52.759,52.759,0,0,1,0-9.928c-2.67-.994-5.189-2.092-7.767-3.317a59.578,59.578,0,0,1,3.872-14.6c2.774.208,5.628.566,8.4,1.017a50.853,50.853,0,0,1,4.981-8.622q-2.635-3.248-5.051-6.75A58.307,58.307,0,0,1,57.827,41.229c2.311,1.618,4.623,3.305,6.773,5.051a53.559,53.559,0,0,1,8.541-4.97c-.451-2.774-.809-5.64-1.017-8.414A60.1,60.1,0,0,1,86.744,29c1.225,2.566,2.311,5.1,3.328,7.755a51.685,51.685,0,0,1,9.916,0c1.005-2.67,2.1-5.189,3.329-7.767A60.1,60.1,0,0,1,117.9,32.862c-.2,2.774-.566,5.628-1.017,8.391a51.639,51.639,0,0,1,8.622,5.085c2.161-1.757,4.426-3.467,6.761-5.051A58.307,58.307,0,0,1,142.9,51.931q-2.416,3.467-5.062,6.761a52.773,52.773,0,0,1,4.981,8.61c2.774-.439,5.628-.809,8.4-1.005a59.647,59.647,0,0,1,3.883,14.585c-2.577,1.225-5.1,2.311-7.755,3.317a51.233,51.233,0,0,1,.139,7.767H123.416a28.03,28.03,0,0,0,.139-2.808A28.6,28.6,0,1,0,94.88,117.681a27.945,27.945,0,0,0,6.426-.717v11.28Zm84.057,6.934V100.507H110.691V135.1H93.239l41.607,35.481L176.452,135.1Z" transform="translate(-34.99 -28.99)"/></g></g></g></svg>