<svg xmlns="http://www.w3.org/2000/svg" width="65.966" height="55.426" viewBox="0 0 65.966 55.426"><defs><style>.a{fill:#d2345b;}</style></defs><path class="a" d="M41.588,25.694a1.643,1.643,0,0,0-1.643-1.643H22.535a1.643,1.643,0,0,0-1.643,1.643V36.143a1.643,1.643,0,0,0,1.643,1.643H38.3v4.642L22.535,58.2l-4.061-4.062a1.644,1.644,0,0,0-2.512.224L.294,76.9a1.643,1.643,0,0,0,1.35,2.581H64.323A1.644,1.644,0,0,0,65.6,76.8L41.588,42.59ZM24.179,34.5V27.338H38.3V34.5ZM4.788,76.19,17.539,57.851l3.833,3.835a1.644,1.644,0,0,0,2.325,0L39.724,45.655,61.157,76.19H4.788Z" transform="translate(0 -24.051)"/></svg>