<svg xmlns="http://www.w3.org/2000/svg" width="234.851" height="44.46" viewBox="0 0 234.851 44.46"><defs><style>.a{fill:#fff;}</style></defs><g transform="translate(-0.99 0.062)"><path class="a" d="M142.192,31.453c0,7.457-4.023,12.073-10.509,12.073s-9.973-4.173-9.973-11.475V2.539L117.34,3.892V31.158c0,9,5.153,14.367,13.783,14.367,8.046,0,13.039-5.312,13.039-13.86V2.52l-1.97.657Z" transform="translate(-60.16 -1.335)"/><path class="a" d="M225.843,3.1V36.876l-20.452-34.3-.039-.063-1.922.642V44.834l2-.666V10.5l20.51,34.409,2.033-.633V2.51h-.193Z" transform="translate(-104.674 -1.33)"/><path class="a" d="M37.065,36.043,37,36.116l-.232.241c-9.1,9.113-20.839,4.134-26.407-1.449A22.26,22.26,0,0,1,4,22.729c-.782-5.375,1.009-10.4,5.2-14.575h0a16.844,16.844,0,0,1,12.122-5.38,16.806,16.806,0,0,1,2.415.179,22.218,22.218,0,0,1,12.17,6.365,22.215,22.215,0,0,1,6.278,12.165,15.9,15.9,0,0,1-4.675,14.126l-.251.241-.068.063h0l-.135.135ZM24.3-.061h-.285A23.113,23.113,0,0,0,7.891,6.826h0A23.181,23.181,0,0,0,.995,22.99,21.278,21.278,0,0,0,7.007,38.27a21.278,21.278,0,0,0,15,6.128h.164a23.128,23.128,0,0,0,16.149-6.935h0l.068-.068A23.21,23.21,0,0,0,45.372,21.15a21.351,21.351,0,0,0-6.1-15.188A21.186,21.186,0,0,0,24.3-.061" transform="translate(0 0)"/><path class="a" d="M375.729,20.7h0c-7.471-3.434-9.3-5.312-9.3-9.548a7.479,7.479,0,0,1,7.828-7.5,8.828,8.828,0,0,1,8.461,6.085l.246.811,3.057-2.207-.212-.454c-1.647-3.564-6.2-6.056-11.059-6.056-6.636,0-11.644,4.564-11.644,10.625,0,5.172,3.158,8.693,10.9,12.155,7.428,3.327,9.7,5.6,9.7,9.717,0,4.863-3.646,8.379-9.07,8.379-4.293,0-8.582-3.014-9.77-6.544l-.261-.773-3.052,2.144.27.483c2.1,3.723,7.457,6.529,12.46,6.529,7.5,0,12.943-5.1,12.943-11.75,0-5.124-2.9-8.181-11.508-12.1" transform="translate(-186.438 -0.983)"/><path class="a" d="M448.3,20.7h0c-7.471-3.434-9.3-5.312-9.3-9.548a7.465,7.465,0,0,1,7.828-7.5,8.828,8.828,0,0,1,8.48,6.08l.246.811,3.057-2.207-.212-.454c-1.666-3.559-6.22-6.051-11.079-6.051-6.636,0-11.644,4.564-11.644,10.625,0,5.172,3.158,8.693,10.9,12.155,7.432,3.323,9.693,5.6,9.693,9.712,0,4.863-3.646,8.379-9.07,8.379-4.293,0-8.582-3.014-9.77-6.544l-.261-.773-3.052,2.144.27.483c2.1,3.723,7.457,6.529,12.46,6.529,7.5,0,12.943-5.1,12.943-11.75,0-5.124-2.9-8.181-11.508-12.1" transform="translate(-223.961 -0.983)"/><path class="a" d="M299.984,28.7H286.375l6.761-19.651Zm-4.7-26.233-2.13.705L278.8,44.558l-.063.179,2.415-.792,4.655-13.45h14.754l5.032,14.28,4.144-1.285-14.4-40.934Z" transform="translate(-143.615 -1.309)"/></g></svg>