<svg xmlns="http://www.w3.org/2000/svg" width="205.838" height="54.779" viewBox="0 0 205.838 54.779"><defs><style>.a{fill:#fff;fill-rule:evenodd;}</style></defs><path class="a" d="M172.033,36.422c-3.992,0-6.08-3.493-6.08-6.939,0-3.353,2-6.659,6.08-6.659,3.342,0,6.034,2.7,6.034,6.52C178.067,33.813,175.375,36.422,172.033,36.422Zm6.127-18.069a9.212,9.212,0,0,0-7.147-3.073c-8.726,0-13.275,6.892-13.275,14.063,0,6.705,4.084,14.156,12.532,14.156a10.285,10.285,0,0,0,7.89-3.446v2.98h7.8V15.745h-7.8v2.607ZM47.535,36.422c-3.992,0-6.08-3.493-6.08-6.939,0-3.353,2-6.659,6.08-6.659,3.342,0,6.034,2.7,6.034,6.52C53.568,33.813,50.876,36.422,47.535,36.422Zm13.924,6.612h-7.8v-2.98a10.285,10.285,0,0,1-7.89,3.446c-8.447,0-12.532-7.451-12.532-14.156,0-7.172,4.548-14.063,13.274-14.063a9.148,9.148,0,0,1,7.148,3.073V15.745h7.8ZM70.589,2a4.15,4.15,0,1,1-4.15,4.15A4.151,4.151,0,0,1,70.589,2ZM23.13,32.187c0,4.242,3.857,4.525,7.071,3.205l1.011,5.845a15.617,15.617,0,0,1-7.439,2.074c-5.051,0-8.907-3.394-8.907-9.71V21.252H10v-6.5h4.866V5.6H23.13v9.144h6.52v6.5H23.13V32.187ZM66.346,45.775V15.513h8.3V45.775c0,7.647-3.873,11-8.945,11a15.865,15.865,0,0,1-7.471-2.052l1.015-5.781c3.228,1.305,7.1,1.026,7.1-3.171Zm27.668-9.353c-3.992,0-6.081-3.493-6.081-6.939,0-3.353,2-6.659,6.081-6.659,3.342,0,6.034,2.7,6.034,6.52C100.048,33.813,97.356,36.422,94.014,36.422Zm6.127-18.069V15.745h7.8V43.034h-7.8v-2.98A10.286,10.286,0,0,1,92.25,43.5c-8.447,0-12.532-7.451-12.532-14.156,0-7.172,4.548-14.063,13.274-14.063a9.148,9.148,0,0,1,7.148,3.073Zm90.8,23.487V2h8.3V41.84h-8.3Zm20.75-18.26a4.15,4.15,0,1,1,4.15-4.15,4.151,4.151,0,0,1-4.15,4.15Zm0,9.96a4.15,4.15,0,1,1-4.15,4.15,4.151,4.151,0,0,1,4.15-4.15ZM141.2,29.783l6.321-14.5h8.552L144.644,41.84h-5.3l-6.507-14.5-6.414,14.5h-5.3L109.6,15.28h8.645l6.228,14.594,6.414-14.594h3.9l6.414,14.5Z" transform="translate(-9.999 -2)"/></svg>