<?xml version="1.0" encoding="utf-8"?>
<!-- Generator: Adobe Illustrator 23.0.3, SVG Export Plug-In . SVG Version: 6.00 Build 0)  -->
<svg version="1.1" id="Layer_1" xmlns="http://www.w3.org/2000/svg" xmlns:xlink="http://www.w3.org/1999/xlink" x="0px" y="0px"
	 viewBox="0 0 662.9 480.7" style="enable-background:new 0 0 662.9 480.7;" xml:space="preserve">
<style type="text/css">
	.st0{fill:#3F3D56;}
	.st1{fill:#F2F2F2;}
	.st2{fill:#FFFFFF;}
	.st3{fill:#D2345B;}
	.st4{fill:#2F2E41;}
	.st5{fill:#ECECEC;}
	.st6{fill:#FFB8B8;}
	.st7{opacity:0.1;enable-background:new    ;}
	.st8{fill:#D0CDE1;}
	.st9{fill:#A0616A;}
	.st10{fill:#B7C0C4;}
	.st11{fill:#F7C3A9;}
	.st12{fill:#E1ECF4;}
	.st13{fill:#D6E0E5;}
	.st14{fill:#634227;}
	.st15{fill:#4C311E;}
	.st16{fill:url(#SVGID_1_);}
	.st17{fill:#14161C;}
	.st18{fill:#E89F8E;}
	.st19{fill:#EFB5A3;}
	.st20{fill:#F7B7A6;}
	.st21{fill:#282627;}
	.st22{fill:#231F20;}
	.st23{fill:#1E1B1C;}
	.st24{fill:none;stroke:#E89F8E;stroke-width:0.5;stroke-miterlimit:10;}
	.st25{fill:#15151A;}
	.st26{fill:none;stroke:#231F20;stroke-width:0.75;stroke-miterlimit:10;}
	.st27{fill:none;stroke:#231F20;stroke-width:0.5;stroke-miterlimit:10;}
</style>
<rect x="52.6" y="36.9" class="st0" width="610.3" height="390.5"/>
<rect x="370.8" y="107.4" class="st1" width="274.8" height="319.6"/>
<path class="st0" d="M28,405.5c8.4,15.5,26.1,22.1,26.1,22.1s4.2-18.5-4.2-34s-26.1-22.1-26.1-22.1S19.6,390,28,405.5z"/>
<path class="st2" d="M33.7,400.4c15.1,9.1,20.9,27.1,20.9,27.1s-18.6,3.3-33.7-5.8S0,394.6,0,394.6S18.6,391.3,33.7,400.4z"/>
<rect x="463.7" y="137.1" class="st2" width="166.6" height="6.7"/>
<rect x="463.7" y="151.9" class="st2" width="166.6" height="6.7"/>
<rect x="463.7" y="166.7" class="st2" width="56.4" height="6.7"/>
<rect x="121.5" y="338.9" class="st2" width="166.6" height="6.7"/>
<rect x="121.5" y="353.6" class="st2" width="166.6" height="6.7"/>
<rect x="121.5" y="368.4" class="st2" width="56.4" height="6.7"/>
<rect x="424.7" y="219.5" class="st2" width="166.6" height="6.7"/>
<rect x="424.7" y="234.3" class="st2" width="166.6" height="6.7"/>
<rect x="424.7" y="248.8" class="st2" width="166.6" height="6.7"/>
<rect x="424.7" y="263.3" class="st2" width="166.6" height="6.7"/>
<rect x="424.7" y="277.7" class="st2" width="166.6" height="6.7"/>
<rect x="424.7" y="292.2" class="st2" width="166.6" height="6.7"/>
<rect x="424.7" y="306.6" class="st2" width="166.6" height="6.7"/>
<rect x="424.7" y="321.1" class="st2" width="166.6" height="6.7"/>
<rect x="424.7" y="335.6" class="st2" width="166.6" height="6.7"/>
<rect x="424.7" y="350" class="st2" width="166.6" height="6.7"/>
<rect x="424.7" y="364.5" class="st2" width="166.6" height="6.7"/>
<path class="st3" d="M265.5,232c0,18.3-8.3,35.7-22.5,47.2c-2.6,2.1-5.4,4-8.3,5.7c-1.8,1-3.6,1.9-5.4,2.7
	c-6.2,2.7-12.7,4.4-19.4,4.9c-1.6,0.1-3.3,0.2-5,0.2c-3.3,0-6.7-0.3-9.9-0.8c-1.2-0.2-2.3-0.4-3.4-0.7c-2-0.4-3.9-1-5.8-1.6
	c-7.9-2.6-15.1-6.8-21.3-12.4c-1.6-1.4-3.1-2.9-4.5-4.5c-22.5-24.9-20.6-63.3,4.3-85.8c24.9-22.5,63.3-20.6,85.8,4.3
	C259.9,202.4,265.5,217,265.5,232L265.5,232z"/>
<path class="st3" d="M446.2,164.3c0.1,19.4-11.4,26.3-25.7,26.3c-0.3,0-0.7,0-1,0c-0.7,0-1.3,0-2-0.1c-12.9-0.9-22.9-7.9-23-26
	c-0.1-18.7,23.7-42.4,25.5-44.2l0,0l0.1-0.1C420.2,120.2,446.1,144.8,446.2,164.3z"/>
<path class="st0" d="M419.5,187.6l9.4-13.2l-9.4,14.7l0,1.5c-0.7,0-1.3,0-2-0.1l0.9-19.4l0-0.1l0,0l0.1-1.8l-9.5-14.6l9.6,13.3
	l0,0.4l0.7-14.7l-8.2-15.1l8.3,12.5l0.7-30.5v-0.1v0.1l0,24l8-9.6l-8.1,11.6l-0.2,13.2l7.5-12.7l-7.5,14.6l-0.1,7.3l10.9-17.6
	l-10.9,20.2L419.5,187.6z"/>
<path class="st0" d="M662.5,207.9c-55.9,0-101.2,45.3-101.2,101.2l0,0c0,16.4-13.3,29.6-29.6,29.6h-49.2
	c-48.7,0-88.2,39.5-88.2,88.2l0,0h268.3L662.5,207.9L662.5,207.9z"/>
<rect x="350.9" y="36.9" class="st4" width="13" height="390.5"/>
<path class="st5" d="M231.2,31.1V21c0-11.6-9.4-21-21-21c-11.6,0-21,9.4-21,21v10.1h-39.8v22.4H271V31.1H231.2z M210.2,5.8
	c6.8,0,12.3,5.5,12.3,12.3c0,6.8-5.5,12.3-12.3,12.3c-6.8,0-12.3-5.5-12.3-12.3v0C197.9,11.3,203.4,5.8,210.2,5.8z"/>
<path class="st6" d="M215.6,228c0,0-6,17.2-2.3,19.8s-12.5,24.2-12.5,24.2l-19.5-5.3l10.7-18.1c0,0,1.4-18.1,1.4-20.7
	S215.6,228,215.6,228z"/>
<path class="st7" d="M215.6,228c0,0-6,17.2-2.3,19.8s-12.5,24.2-12.5,24.2l-19.5-5.3l10.7-18.1c0,0,1.4-18.1,1.4-20.7
	S215.6,228,215.6,228z"/>
<circle class="st6" cx="203.3" cy="224.9" r="15.9"/>
<path class="st8" d="M191.4,291.2c-2-0.4-3.9-1-5.8-1.6l3-20.8l0.9-6.4l4.8,1.8c0.7,0.2,1.4,0.5,2.2,0.8c1.3,0.5,2.8,0.5,4-0.1
	c4.7-2.1,7.4-10.4,7.4-10.4s0.2,2.3,0.4,6.3c0.4,6.9,1.1,18.8,1.3,31.8c-1.6,0.1-3.3,0.2-5,0.2c-3.3,0-6.7-0.3-9.9-0.8
	C193.7,291.7,192.6,291.5,191.4,291.2z"/>
<path class="st8" d="M195.8,251.8l-1.4,12.4l-0.7,6l-2.3,21.1c-2-0.4-3.9-1-5.8-1.6c-7.9-2.6-15.1-6.8-21.3-12.4l-2.9-10.4
	c0-0.6,0.1-1.2,0.2-1.9c0,0,0,0,0,0c0.1-0.5,0.2-1.1,0.4-1.6c0,0,0,0,0,0c0.5-2,1.5-3.8,3-5.3c3.5-3.5,26.9-14.5,26.9-14.5l0.4,0.9
	L195.8,251.8z"/>
<path class="st4" d="M202.9,202.5c3.5-0.1,7.3-0.2,10.2,1.7c1.4,1,2.6,2.1,3.5,3.5c2.9,3.7,5.4,8.2,4.3,12.8l-1.2-0.5
	c0,1.2,0.3,2.4,0.8,3.5c-0.2-0.5-0.8,0.3-0.6,0.8l1.4,4.5c-2.2-0.7-4.6,0.6-5.3,2.8c0,0.1-0.1,0.3-0.1,0.4
	c-0.2-5.2-0.7-11.2-4.9-14.3c-2.1-1.5-4.8-2-7.5-2.4c-2.4-0.4-4.9-0.8-7.2,0s-4.3,3.1-3.7,5.5c-1.1-0.3-2.3,0.3-2.8,1.4
	c-0.4,1-0.6,2.2-0.6,3.3c-1.1,0.8-2.4-0.8-2.9-2.1c-1.1-3.1-2-6.3-1.5-9.5s3.2-6.3,6.4-6.3c-0.4-0.4-0.6-1-0.6-1.6l2.7-0.2
	c-0.7-0.1-1.3-0.4-1.8-0.9C192.7,206,201.2,202.6,202.9,202.5z"/>
<path class="st8" d="M239.8,263.3c-0.4,3.3-2.8,12.6-5.1,21.6c-1.8,1-3.6,1.9-5.4,2.7c-6.2,2.7-12.7,4.4-19.4,4.9
	c-1.6,0.1-3.3,0.2-5,0.2c-3.3,0-6.7-0.3-9.9-0.8c1.2-4.7,2.9-12.6,4.4-20.2c0.5-2.3,0.9-4.6,1.4-6.8c1.7-8.7,3-15.7,3-15.7
	s5.3-5.2,8.4-6.4c0.4-0.2,0.9-0.3,1.4-0.2c2.6,0.4,6.1,6.6,6.1,6.6s15.8,5.3,19.5,11.3C239.7,261.3,239.9,262.3,239.8,263.3z"/>
<path class="st8" d="M172.8,263.3l-0.9,19.8c-2.7-1.7-5.2-3.7-7.6-5.8c-1.6-1.4-3.1-2.9-4.5-4.5c0.8-3.3,1.4-6.1,1.8-7.8
	c0,0,0,0,0,0c0.2-0.9,0.3-1.5,0.4-1.6c0,0,0,0,0,0L172.8,263.3z"/>
<path class="st8" d="M243,279.2c-2.6,2.1-5.4,4-8.3,5.7c-1.8,1-3.6,1.9-5.4,2.7l-1.8-10.2l1.8-19.4l9.8,2.5l0.7,0.2L243,279.2z"/>
<path class="st9" d="M587.7,451l-4.6,19.1l16.8,10.7l4.6-22.9L587.7,451z"/>
<g transform="translate(0 0.001)">
	<path class="st10" d="M567.7,170.7c0,0-58.4,14.2-78.4-6.4l9.4-48.1l53.5,3.2l13.7,12L567.7,170.7z"/>
	<path class="st11" d="M577.2,309.1c-0.2,1-0.9,1.8-1.9,2.2c-1.7,0.8-1.6,0.1-3.9,0c-1.1,0.7-2.4,1-3.7,1c-1.8-0.1-2.1-1.1-5.1-1.3
		c0,0-3-3.5-1.1-7.2c0,0-0.8,0.1-1.1-1.3c-0.3-1.4,1.9-11.9,5.1-11.9l7.9,10.6L577.2,309.1z"/>
	<path class="st11" d="M577.2,290.4c0,0,0.3,11.2,0,18.7c0,0-9.6,0.3-14.6-0.6c0,0,0.9-14.5,3-18L577.2,290.4z"/>
	<path class="st11" d="M562.8,185.4c5.5,4.4,10,31.4,12.2,57c2.1,24.6,2.1,48,2.1,48l-11.6,0.2c-2.8-24.7-5.8-37.9-6.6-46.2
		c-0.5-5-0.7-8.3-0.7-10.5L562.8,185.4z"/>
	<path class="st12" d="M558.4,166.4c0,0,9.4,4.5,14.2,29c5.6,28.6,8.2,74.6,8,98.9c0,0-11.4,4.4-21.2,1.9
		C559.4,296.2,555.1,174.8,558.4,166.4z"/>
	<path class="st13" d="M559.4,296.2c0,0-4.3-121.4-1-129.8c0,0,5.9,2.8,10.8,16.2l0,0c-2.4,3-3.6,6.9-3.1,10.7
		c2.8,25.4,9,86.3,7.5,102.9C569.5,297,564.2,297.4,559.4,296.2z"/>
	<path class="st14" d="M494.4,442.1c0,0-1.9,18.9-1.2,26.9h22c0,0,0.1-5-1.1-6.4c-1.2-1.3-5.6-8.6-5.4-19.2L494.4,442.1z"/>
	<path class="st14" d="M536,446c0,0-2.1,12.5-1.7,23h35.1c0,0,1.3-4.1,0-5.7s-10.7-4.3-14.4-7.7c-2.8-2.7-4.9-6-6.4-9.6H536z"/>
	<path class="st15" d="M536,446h12.6c1.4,3.6,3.6,6.9,6.4,9.6c0.9,0.8,1.9,1.5,3,2.1c-6.6,0.6-17.6,2.9-23.7,11.3
		C533.9,458.4,536,446,536,446z"/>
	<path class="st15" d="M494.4,442.1l14.3,1.3c-0.1,4.8,0.8,9.6,2.6,14.1c-5.7,0.4-15.9,2.5-18.1,11.4
		C492.6,461.1,494.4,442.1,494.4,442.1z"/>
	
		<linearGradient id="SVGID_1_" gradientUnits="userSpaceOnUse" x1="38.9648" y1="659.1986" x2="38.9648" y2="658.6697" gradientTransform="matrix(80.026 0 0 -186.7592 -2588.675 123476.4766)">
		<stop  offset="0" style="stop-color:#171921"/>
		<stop  offset="1" style="stop-color:#131215"/>
	</linearGradient>
	<path class="st16" d="M565.8,281.4c-2.1,55.3-7.2,110.5-15.4,165.3c0,0-9,2.6-15.4,0c0,0,0.1-124.7-0.5-130.5c0,0-5.6-1.3-6.9,0.5
		c0,0-14.1,113.8-18.1,127.6c0,0-9,3.2-16.4-0.5c0,0,2.9-152.6,5.3-165.3L565.8,281.4z"/>
	<path class="st17" d="M539.4,314.1c0,0-3.6,104.8-2.2,133.4c-0.7-0.2-1.4-0.4-2.1-0.7c0,0,0.1-124.7-0.5-130.5c0,0-4.5-1.1-6.3,0
		C529.4,315.4,534.6,313.7,539.4,314.1z"/>
	<path class="st18" d="M552.8,120.7c0.7-7.5,5.2-9.7,9.6-7.8c6,2.6,5.8,19-10.1,16.1L552.8,120.7z"/>
	<path class="st17" d="M565.8,281.4c0,0,0,1.8-0.2,5.1c-6.5,2-27,7.3-60.4,7.3c0,0-12.3,122.1-10.2,150.7c-0.6-0.2-1.2-0.5-1.8-0.8
		c0,0,2.9-152.6,5.3-165.3L565.8,281.4z"/>
	<path class="st12" d="M496.8,166.8c0.3-0.2,0.7-0.4,1-0.6c7.5-3.3,23.4-5.8,33.5-5.7c7.4,0,19.6,2.2,27,5.9
		c23.9,94.7,7.5,286.2,7.5,286.2c-3.6,2.4-30.8,8.4-54.6,2.2c-12.1-3.2-29.8-0.6-29.8-0.6C481.3,441.5,499.2,181.5,496.8,166.8z"/>
	<path class="st13" d="M501.5,231.7c0,0,5.7,52.2,7,58.7l-3.4,5.1c0,0-2.7,108.1,4.2,158.8c-11.9-2.4-27.8-0.1-27.8-0.1
		c-0.1-10.3,11.5-181.5,14.7-255l9.9,2.6C506.1,201.8,503.4,220.6,501.5,231.7z"/>
	<path class="st13" d="M496.8,166.8c0.3-0.2,0.7-0.4,1-0.6c7.5-3.3,23.4-5.8,33.5-5.7c7.4,0,19.6,2.2,27,5.9
		c0.7,2.7,1.3,5.5,1.9,8.3c-9.1,2.7-28.7,8.7-47.8,0.4c0,0,0.4,13.6,1.5,18.2c0,0-10.3-1.4-17.2-6.6
		C497.1,176,497.2,168.9,496.8,166.8z"/>
	<path class="st19" d="M533.8,175.1c-14.7-0.1-12.6-13.1-12.6-14v-19h17.9l0.2,18.9C539.4,161.6,548,175.2,533.8,175.1z"/>
	<path class="st13" d="M533.3,161c0,0-10.1-0.5-12-6.4c-2.3,1.8-4.1,4.2-5,7c0,0-0.8,15.9,15.2,15.9c9.7,0,14.1-5.5,14.1-10.1
		c-0.1-1.9-0.6-3.8-1.5-5.5c-1.4-2.1-2.9-4.1-4.7-5.9C538.5,158.7,536.1,160.7,533.3,161z"/>
	<path class="st11" d="M560.2,88.8c2,3,3.9,15.5,3.2,25.1s0.3,21.1-1.5,24.7c-2.7,5.5-20.9,13.6-25.3,14.7
		c-4.4,1.1-23.7-8.8-26.3-14.1c-2.6-5.3-10.8-30.2-7.8-42.4c3-12.2,14.1-22.3,30.2-22.3C551.4,74.6,557.5,84.7,560.2,88.8z"/>
	<path class="st20" d="M550.8,127.1c0,2.7,2.5,5,5.6,5c3.1,0,5.6-2.2,5.6-5s-2.5-5-5.6-5S550.8,124.4,550.8,127.1z"/>
	<path class="st21" d="M530.7,112.3c0,0-4.7-3.7-9.3-3.4c-4.7,0.3-5.1,1.1-5.1,1.1c-0.1-0.9,0.3-1.9,1.1-2.4c1.1-0.7,3.5-1,5.3-0.9
		c2.3,0.1,6.6,2.1,8.1,3.6C532,111.5,530.7,112.3,530.7,112.3z"/>
	<path class="st21" d="M507,120.7c1.1,6,7.4,16.7,12.9,12.1c5.5-4.5,9.9-1.8,15.4-0.7c3.3,0.7,6.7,0.9,10.1,0.6
		c4.7,0.6,4.8,3.2,11.4,1.8c2.6-0.6,4.9-2.4,6.2-4.8c-0.1,3.9,0.2,8.8-0.6,10.4c-2.7,5.5-12.8,16.8-27.2,16.8
		c-14.9,0-23.1-12.4-25.8-17.7c-1.3-2.6-3-10-5-18.1C505.6,119.4,506.7,118.7,507,120.7z M519.9,138.6c1.7,5.5,7.6,9.3,15.4,9.6
		c7.7,0.2,13-3.1,13.4-6.8c1-10.4-9.4-5.6-18.4-8.7C523.3,130.4,518.8,135.1,519.9,138.6L519.9,138.6z"/>
	<path class="st21" d="M543.8,112.9c0,0,4.7-3.7,9.3-3.4c4.7,0.3,5.1,1.1,5.1,1.1c0.1-0.9-0.3-1.9-1.1-2.4c-1.1-0.7-3.5-1-5.3-0.9
		c-2.3,0.1-6.6,2.1-8.1,3.6C542.6,112,543.8,112.9,543.8,112.9z"/>
	<path class="st22" d="M518.1,117.5c0,2.4,1.1,4.3,2.6,4.3c1.4,0,2.6-1.9,2.6-4.3c0-2.4-1.1-4.3-2.6-4.3
		C519.3,113.1,518.1,115.1,518.1,117.5z"/>
	<path class="st13" d="M562.7,186.9c-1.4,0.7-2.9,1.2-4.5,1.6c0,0,1.1-10.3,0-13.4l4.5-2.7l1.7,5.1L562.7,186.9z"/>
	<path class="st23" d="M519,114.2c-0.2,0.7-0.3,1.4-0.3,2.1c0,2.8,1.3,5,2.9,5.2c-0.3,0.2-0.6,0.3-0.9,0.3c-1.4,0-2.6-1.9-2.6-4.3
		C518.1,116.3,518.4,115.2,519,114.2z"/>
	<path class="st22" d="M548.6,117.5c0,2.4,1.1,4.3,2.6,4.3c1.4,0,2.6-1.9,2.6-4.3c0-2.4-1.1-4.3-2.6-4.3
		C549.7,113.1,548.6,115.1,548.6,117.5z"/>
	<path class="st23" d="M549.5,114.2c-0.2,0.7-0.3,1.4-0.3,2.1c0,2.8,1.3,5,2.9,5.2c-0.3,0.2-0.6,0.3-0.9,0.3c-1.4,0-2.6-1.9-2.6-4.3
		C548.6,116.3,548.9,115.2,549.5,114.2z"/>
	<path class="st11" d="M506,120.7c-0.7-7.5-5.2-9.7-9.6-7.8c-6,2.6-5.8,19,10.1,16.1L506,120.7z"/>
	<path class="st18" d="M495.8,118c0,0,6.6-3.3,7.7,5.8c0,0-4.3-3.7-6.6-0.9c0,0,0.6-2.6,4.1-1.8C500.3,118.9,498,117.6,495.8,118z"
		/>
	<path class="st24" d="M536.8,143.8c0,0-2,0.8-5.2-0.8"/>
	<path class="st20" d="M511.9,127.1c0,2.7,2.5,5,5.6,5s5.6-2.2,5.6-5s-2.5-5-5.6-5S511.9,124.4,511.9,127.1z"/>
	<g transform="translate(2.3 128.465)">
		<path class="st11" d="M475.8,99.7l7.3-37.3c0,0,19.7-5.3,19.7-4.8c0,0.5-9.5,46.7-9.5,46.7c3.2,15.6,4.8,54.6,4.8,54.6l-11.6,0.9
			c-4.2-24.5-8-37.5-9.4-45.7C474.9,101.2,475.8,99.7,475.8,99.7z"/>
		<path class="st19" d="M495.4,94.2c-0.3,1.3-0.5,2.4-0.7,3.5c-3.7,1.2-10,0.1-15.3-2c-0.7,4.3-1,8.6-0.8,13
			c1,12.3,4.2,31.1,5.8,39.6l0,0c-3.3-17.2-6.2-27.4-7.3-34.2c-2.1-12.9-1.3-14.4-1.3-14.4l6.7-34.2L486,63L495.4,94.2z"/>
		<path class="st11" d="M499.2,177.6c0,0-0.2,2-1.3,2.3c-1.1,0.3-1.5-0.2-3.4,0c0,0-0.5,0.7-4.1,0.1c0,0-2.2,0.9-3.2,0.6
			c-1-0.2-1.5,0.3-2.7-0.3c-1.2-0.6-1.8-2.7-1.8-2.7s-0.4-5.4,0.5-5.9c1.1-0.6,2.4-0.3,3.3,0.6C487.3,173.3,499.2,177.6,499.2,177.6
			z"/>
		<path class="st18" d="M483.9,173.8c0,0,0.1,0.4,0.4,1c0.2,0.3,0.4,0.5,0.6,0.7v0.5c-0.7,0.2-1.2,0.6-1.7,1.2
			c0-0.2,0.1-0.4,0.1-0.6c0.2-0.3,0.6-0.5,0.9-0.6C484.5,175.9,483.8,174.6,483.9,173.8z"/>
		<path class="st19" d="M484.7,174.5c-0.6-2.3-1.7-2.2-1.7-2.2c0-0.2,0.2-0.4,0.3-0.5c1.1-0.6,2.4-0.3,3.3,0.6c0,0,0.1,0.1,0.1,0.1
			L484.7,174.5z"/>
		<path class="st11" d="M498.1,158.9c0,0,1,11.1,1.1,18.7c0,0-9.6,0.9-14.6,0.3c0,0,0-14.5,1.9-18.2L498.1,158.9z"/>
	</g>
	<path class="st12" d="M497.9,166.2c0,0-6.9,3-15.9,34.2c-5.9,20.4-6.9,32.4-5.6,38.8c1.3,6.4,6.8,51.6,6.8,51.6s13.7,4.7,22-2.5
		c0,0-6.1-45.8-6.5-56.1c0,0,5.1-16.7,8.5-35.1C510.6,178.3,507.7,167.5,497.9,166.2z"/>
	<path class="st12" d="M497.9,166.2c0,0-6.9,3-15.9,34.2c-5.9,20.4-6.9,32.4-5.6,38.8c1.3,6.4,6.8,51.6,6.8,51.6s13.7,4.7,22-2.5
		c0,0-6.1-45.8-6.5-56.1c0,0,5.1-16.7,8.5-35.1C510.6,178.3,507.7,167.5,497.9,166.2z"/>
	<path class="st13" d="M497.9,166.2c8.9,1.2,12.1,10.1,10,25.6c-3.9-1.1-6.2-3.5-9.7-6.4c-2.3-2-7.6-2.3-10.3-2.8
		C493.9,168,497.9,166.2,497.9,166.2z"/>
	<path class="st12" d="M511.8,101c0,0-4.2,70.4-0.3,88.5c0,0-6.3-6.6-14.2-8.4c-7.9-1.8-13.5-8.5-13.5-8.5s8.9-49.2,8.9-66.1
		c0-16.9,16.9-40.9,45.5-36.4c28.5,4.5,30.1,31.6,30.6,45.5c0.5,14,0.3,51.4,4.6,62c0,0-0.9,5.8-13.3,8.5c0,0,3.5-62.8,1.5-83.5
		c0,0-4-4-20.5-4.5C524.7,97.5,524.5,102.5,511.8,101z"/>
	<g transform="translate(17.107 16.133)">
		<path class="st25" d="M476.2,82.7c0.3,0,0.6-0.1,0.9-0.2c42.1-21.6,71.1-3.1,71.3-2.9c0.9,0.6,2.1,0.3,2.7-0.5
			c0.6-0.9,0.3-2.1-0.5-2.7l0,0c-1.3-0.8-31.2-20-75.2,2.7c-0.9,0.5-1.3,1.7-0.8,2.6C474.8,82.3,475.4,82.7,476.2,82.7L476.2,82.7z"
			/>
	</g>
	<g transform="translate(51.991 72.84)">
		<path class="st26" d="M493.4,68.4c0,0-12.7,1.3-20.5-4"/>
		<path class="st27" d="M473.6,62.7c-0.1,1.5-1.1,2.7-2.6,3"/>
	</g>
	<path class="st13" d="M482,200.4c2-7.1,4.4-14.1,7.3-20.9l2.2,3.6c0,0-10.3,22.4-14.2,36.5C478.5,213.1,480.1,206.7,482,200.4z"/>
</g>
</svg>
