<svg xmlns="http://www.w3.org/2000/svg" width="89.123" height="83.276" viewBox="0 0 89.123 83.276"><defs><style>.a{fill:#d2345b;}.b{fill:#fc0167;}</style></defs><g transform="translate(0 -16.793)"><g transform="translate(9.402 42.059)"><path class="a" d="M123.683,178.769l-9.7-14.973a4.046,4.046,0,0,0-3.408-1.853H67.8a4.046,4.046,0,0,0-3.405,1.849l-9.726,14.975a4.069,4.069,0,0,0,.373,4.913l31.1,34.914a4.064,4.064,0,0,0,3.032,1.36h0a4.065,4.065,0,0,0,3.032-1.36l31.1-34.917A4.07,4.07,0,0,0,123.683,178.769Zm-15.069-13.345-8.154,12.609L92.3,165.423ZM97.261,179.5H81.082L89.171,167ZM86.042,165.424,77.905,178l-8.134-12.575Zm-19.489,1.433,8.176,12.64H58.343Zm-7.474,16.121H76.6l9.263,30.068Zm30.093,28.99-8.931-28.99H98.1Zm3.311,1.079,9.264-30.068h17.521Zm11.177-33.55,8.168-12.631,8.179,12.631Z" transform="translate(-54.014 -161.942)"/></g><g transform="translate(0 59.614)"><path class="b" d="M5.28,262.793H1.741a1.741,1.741,0,0,0,0,3.481H5.28a1.741,1.741,0,0,0,0-3.481Z" transform="translate(0 -262.793)"/></g><g transform="translate(82.102 59.614)"><path class="b" d="M476.947,262.793h-3.539a1.741,1.741,0,0,0,0,3.481h3.539a1.741,1.741,0,1,0,0-3.481Z" transform="translate(-471.667 -262.793)"/></g><g transform="translate(67.339 29.344)"><g transform="translate(0 0)"><path class="b" d="M395.611,89.407a1.741,1.741,0,0,0-2.462,0l-5.782,5.782a1.741,1.741,0,0,0,2.462,2.462l5.782-5.782A1.741,1.741,0,0,0,395.611,89.407Z" transform="translate(-386.857 -88.897)"/></g></g><g transform="translate(12.595 29.313)"><path class="b" d="M81.112,95.01,75.33,89.228a1.741,1.741,0,0,0-2.462,2.462l5.782,5.782a1.741,1.741,0,0,0,2.462-2.461Z" transform="translate(-72.358 -88.718)"/></g><g transform="translate(42.865 16.793)"><g transform="translate(0 0)"><path class="b" d="M247.995,16.793a1.741,1.741,0,0,0-1.741,1.741V29.877a1.741,1.741,0,1,0,3.481,0V18.534A1.741,1.741,0,0,0,247.995,16.793Z" transform="translate(-246.254 -16.793)"/></g></g><g transform="translate(42.864 34.025)"><path class="b" d="M249.221,116.3a1.739,1.739,0,1,0,.51,1.231A1.753,1.753,0,0,0,249.221,116.3Z" transform="translate(-246.25 -115.79)"/></g></g></svg>